<?xml version="1.0" encoding="utf-8"?>
<!-- Generator: Adobe Illustrator 21.0.2, SVG Export Plug-In . SVG Version: 6.00 Build 0)  -->
<svg version="1.1" id="Слой_1" xmlns="http://www.w3.org/2000/svg" xmlns:xlink="http://www.w3.org/1999/xlink" x="0px" y="0px"
	 viewBox="0 0 476.6 95.5" style="enable-background:new 0 0 476.6 95.5;" xml:space="preserve">
<style type="text/css">
	.st0{fill:#E53020;}
	.st1{fill:#2D2D2B;}
	.st2{clip-path:url(#SVGID_2_);fill:#2D2D2B;}
</style>
<polygon class="st0" points="130.9,0 99.1,31.8 67.3,0 35.4,31.8 99.1,95.5 162.7,31.8 "/>
<rect y="9.3" class="st1" width="16.3" height="76.5"/>
<polygon class="st1" points="181.8,9.3 236,9.3 236,23.3 198.1,23.3 198.1,40 236,40 236,54 198.1,54 198.1,71.8 236,71.8 236,85.9 
	181.8,85.9 "/>
<g>
	<defs>
		<rect id="SVGID_1_" y="0" width="476.6" height="95.5"/>
	</defs>
	<clipPath id="SVGID_2_">
		<use xlink:href="#SVGID_1_"  style="overflow:visible;"/>
	</clipPath>
	<path class="st2" d="M323.7,9.3h30.2c24,0,40.6,15.3,40.6,38.3c0,23.1-16.6,38.2-40.6,38.2h-30.2V9.3z M353.8,71.5
		c15.1,0,24-10.9,24-23.9c0-13.5-8.3-24-24-24h-13.9v47.8H353.8z"/>
	<polygon class="st2" points="261.9,34.5 261.9,85.9 245.6,85.9 245.6,9.3 262.3,9.3 297.8,58.9 297.8,9.3 314.1,9.3 314.1,85.9 
		298.3,85.9 	"/>
	<path class="st2" d="M437.8,9.3c22.4,0,38.7,16,38.7,38.3s-16.3,38.3-38.7,38.3c-22.3,0-38.6-16-38.6-38.3S415.5,9.3,437.8,9.3
		 M437.8,23.3c-13.6,0-22.4,10.4-22.4,24.3c0,13.8,8.8,24.3,22.4,24.3c13.6,0,22.5-10.5,22.5-24.3C460.4,33.8,451.5,23.3,437.8,23.3
		"/>
</g>
</svg>
