<?xml version="1.0" encoding="utf-8"?>
<!-- Generator: Adobe Illustrator 21.0.2, SVG Export Plug-In . SVG Version: 6.00 Build 0)  -->
<svg version="1.1" id="Слой_1" xmlns="http://www.w3.org/2000/svg" xmlns:xlink="http://www.w3.org/1999/xlink" x="0px" y="0px"
	 viewBox="0 0 405.7 30.5" style="enable-background:new 0 0 405.7 30.5;" xml:space="preserve">
<style type="text/css">
	.st0{clip-path:url(#SVGID_2_);fill:#E53020;}
</style>
<g>
	<defs>
		<rect id="SVGID_1_" y="0" width="405.7" height="30.5"/>
	</defs>
	<clipPath id="SVGID_2_">
		<use xlink:href="#SVGID_1_"  style="overflow:visible;"/>
	</clipPath>
	<path class="st0" d="M20.6,3.3c-0.1,0.2-0.5,0.4-1,0.7c-1,0.5-1.6,0.9-1.7,1.1c-0.1,0.1-0.4,0.3-0.8,0.6c-0.4,0.3-0.9,0.7-1.5,1.1
		c-0.9,0.6-1.6,1.1-2.3,1.7c-0.6,0.5-1.1,0.9-1.3,1.2c-0.1,0-0.1,0-0.3,0.1c-0.1,0.1-0.2,0.1-0.3,0.1c0,0-0.1,0.1-0.3,0.2
		C11.1,10,11,10.1,11,10.2c-0.1,0.2-0.2,0.4-0.3,0.5c-0.1,0.2-0.3,0.2-0.5,0.2c-0.3,0.2-0.9,0.6-1.8,1.2c0.2,1.6,0.6,3,1.3,4.2
		c0.7,1.4,1.3,2.5,2,3.2c0.5,0.5,0.9,0.9,1.3,1.2c0.4,0.3,0.7,0.4,1,0.4c0.2,0.1,0.5,0.2,0.8,0.5c0.4,0.2,0.6,0.4,0.6,0.6
		c0,0,0,0.2,0,0.4c0,0.3-0.1,0.6-0.2,0.9c-0.1,0.3-0.3,0.5-0.5,0.7c-0.2,0.2-0.4,0.3-0.6,0.3s-0.6-0.1-1.1-0.3c-0.4,0-1-0.3-1.9-1
		c-0.9-0.7-1.6-1.3-2-1.9c-0.6-0.9-1.1-1.7-1.6-2.4c-0.4-0.7-0.8-1.5-1-2.4C6.4,16,6.3,15.4,6,14.7c-0.1-0.4-0.2-0.7-0.2-0.8
		l-0.1,0.3c0,0.1-0.2,0.4-0.4,1.1c-0.3,0.7-0.6,1.9-1.1,3.6c-0.4,1.3-0.8,2.5-1.1,3.4c-0.3,0.9-0.6,1.6-0.8,1.9
		c-0.2,0.3-0.4,0.5-0.6,0.5s-0.4-0.1-0.7-0.3C0.4,23.9,0,23.4,0,22.9c0-0.1,0-0.2,0.1-0.4c0-0.3,0-0.6,0.1-0.8
		c0.1-0.3,0.1-0.4,0.1-0.5c0.2,0,0.2-0.2,0.2-0.5c0-0.2,0.1-0.6,0.3-1.2l0.3-1l0.4-1c0.2-0.6,0.4-1,0.4-1c0-0.3,0.1-0.7,0.4-1.1
		c0.1-0.3,0.2-0.6,0.2-0.9c0.1-0.3,0.1-0.6,0.1-0.8c0-0.1,0.2-0.4,0.4-0.8c0.2-0.4,0.3-0.8,0.4-1.2c0-0.1,0.1-0.2,0.1-0.4
		c0.1-0.1,0.1-0.3,0.2-0.5l1.1-3l0.5-1.1c0-0.1,0.2-0.5,0.5-1C6.1,5,6.3,4.7,6.3,4.7V4.4c0-0.1,0.1-0.4,0.4-0.9l0.4-0.8
		c0.2-0.3,0.3-0.5,0.4-0.8c0.1-0.3,0.2-0.5,0.2-0.6c0,0,0.1-0.1,0.1-0.2C7.9,0.9,8,0.8,8.1,0.7c0.2-0.1,0.4-0.3,0.7-0.4
		c0.3-0.1,0.5-0.2,0.8-0.2c0.4,0,0.6,0.1,0.8,0.4c0.3,0.5,0.4,1,0.4,1.3c0,0.2-0.1,0.5-0.2,0.7c-0.5,1-1,2.2-1.7,3.6
		C8.2,7.7,7.7,8.8,7.4,9.7l0.2-0.2c0.6-0.6,1.5-1.4,2.8-2.3l4.2-3.4c0.6-0.3,1.4-0.8,2.2-1.5C17,2.2,17.2,2,17.3,1.9
		c0.1-0.1,0.2-0.2,0.3-0.2c0.1-0.1,0.4-0.3,0.8-0.6c0.4-0.3,0.7-0.4,0.8-0.4c0.2-0.1,0.4,0,0.6,0.3c0.2,0.2,0.5,0.6,0.6,0.9
		c0.2,0.4,0.2,0.6,0.2,0.8C20.8,2.9,20.7,3.1,20.6,3.3"/>
	<path class="st0" d="M17.9,22.3c-0.2-0.1-0.4-0.3-0.7-0.5c-0.5-0.5-0.8-1-1-1.5c-0.2-0.5-0.3-0.9-0.3-1.3c0.1-0.2,0.1-0.3,0.1-0.5
		c0-0.2,0-0.3,0-0.3c-0.1-0.1-0.1-0.2-0.1-0.2s0-0.1,0.1-0.1c0,0,0.1-0.1,0.1-0.1c0.1,0,0.2-0.1,0.1-0.4c0-0.2,0-0.6,0.2-1.2
		c0.2-0.6,0.5-1.2,0.8-1.7c0.2-0.4,0.6-0.9,1.1-1.5c0.5-0.6,0.9-1.1,1.3-1.4c1.1-1,2.1-1.6,3-1.8c0.4-0.1,0.9-0.2,1.3-0.2
		c0.7,0,1.2,0.2,1.5,0.5c0.5,0.2,0.9,0.5,1.1,0.9c0.2,0.4,0.4,0.9,0.4,1.5c0,0.1,0,0.4,0,0.7c0,1.7-0.6,3.4-1.9,5.2
		c-0.5,0.7-1,1.3-1.6,1.8c-0.5,0.5-1.1,0.9-1.9,1.3c-0.4,0.3-0.8,0.5-1.3,0.5c-0.5,0.1-1.1,0.2-1.8,0.2C18.3,22.4,18,22.4,17.9,22.3
		 M22.9,17.2c0.2-0.4,0.5-1.1,0.8-2.1c0.1-0.2,0.2-0.6,0.2-1.2c0-0.5-0.1-0.8-0.2-0.9c-0.1-0.1-0.2-0.1-0.4-0.1
		c-0.2,0-0.5,0.2-1,0.5c-0.8,0.7-1.4,1.4-2,2.1c-0.5,0.7-0.9,1.6-1.1,2.5c0,0.1,0,0.2,0,0.4c0,0.8,0.3,1.1,0.8,1.1
		c0.5,0,1.2-0.4,2-1.1C22.4,17.9,22.7,17.6,22.9,17.2"/>
	<path class="st0" d="M37.9,21.8v-2.3c0-0.4,0-0.8,0.1-1.2c0-0.5,0.1-0.8,0.1-1V17v-0.4C38,16.2,37.8,16,37.6,16
		c-0.4,0-1.2,0.4-2.2,1.2c-1.1,0.8-2.2,1.7-3.4,2.8c-0.4,0.4-0.7,0.7-0.9,1.1c-0.2,0.3-0.4,0.5-0.5,0.5c-0.1,0.1-0.3,0.1-0.5,0.1
		c-0.3,0-0.7-0.3-1.1-0.7c-0.4-0.4-0.7-0.8-0.8-1.1c0-0.6,0.1-1.2,0.3-1.8s0.6-1.3,1-2.2c0.2-0.7,0.5-1.3,0.8-2
		c0.3-0.8,0.6-1.4,0.7-1.8c0.1-0.4,0.2-0.8,0.3-1.3c0,0,0,0,0,0c0-0.1,0-0.2,0.1-0.2c0.1-0.1,0.1-0.1,0.2-0.1c0-0.1,0.2-0.1,0.4-0.1
		c0.6,0,1.1,0.2,1.5,0.5c0.4,0.3,0.6,0.8,0.6,1.5c0,0.3-0.1,0.7-0.2,1c-0.1,0.3-0.4,0.8-0.7,1.5l-0.4,0.7c-0.1,0.1-0.2,0.3-0.3,0.6
		c-0.1,0.3-0.2,0.4-0.2,0.5c0.6-0.4,1.2-0.9,2-1.5c1.1-0.9,2-1.6,2.8-2.1c0.7-0.5,1.2-0.7,1.6-0.7c0.3,0,0.7,0.2,1.2,0.5
		c0.5,0.3,0.8,0.6,0.9,0.9c0,0.2,0,0.4-0.1,0.7c0,0.3-0.1,0.6-0.1,0.8l0,1c0,0.2,0,0.5,0,0.8c0,0.7,0,1.2-0.1,1.5c0,0,0,0.1,0.1,0.1
		c0,0,0,0.1,0,0.1l0,0.1c0,0.2,0.1,0.6,0.4,1.1c0.2,0.5,0.3,0.8,0.3,0.8c0,0.2-0.2,0.5-0.5,0.8c-0.3,0.3-0.6,0.5-0.9,0.5
		C38.6,21.8,37.9,21.8,37.9,21.8"/>
	<path class="st0" d="M44.7,25.1c-0.3-0.4-0.5-0.9-0.7-1.5c-0.2-0.6-0.3-1.3-0.3-2c0-0.2,0-0.5,0-0.8c0-1.6,0.5-4,1.4-7.2
		c0.3-1.1,0.9-2.7,1.8-4.7c0.9-2,1.4-3.1,1.6-3.3h0.1c0.1,0,0.1-0.1,0.1-0.3c0,0,0.1-0.2,0.3-0.5c0.2-0.3,0.3-0.6,0.5-0.9
		c0.5-0.7,1.1-1.4,1.9-2.1c0.8-0.7,1.4-1.2,1.9-1.4c0.3-0.1,0.7-0.2,1-0.2c0.4,0,0.9,0.1,1.4,0.4c0.5,0.3,1,0.6,1.3,1.1
		c0.4,0.4,0.5,0.8,0.5,1.2c0,0.4-0.1,0.7-0.2,1c-0.1,0.4-0.3,1-0.6,1.6C56.3,6,56,6.5,55.8,6.8c-0.5,0.4-1,0.6-1.4,0.6
		c-0.2,0-0.4,0-0.5-0.1c-0.1-0.1-0.1-0.2-0.1-0.3c0-0.2,0.1-0.4,0.1-0.6c0.1-0.2,0.1-0.5,0.1-0.7c0,0,0.1-0.2,0.2-0.4
		s0.2-0.5,0.2-0.7c0.2-0.8,0.3-1.3,0.3-1.6c0-0.3-0.1-0.4-0.3-0.4c-0.2,0-0.4,0-0.6,0.2c-0.2,0.1-0.3,0.3-0.3,0.5v0.1
		c-0.1,0-0.5,0.4-1.1,1.2c-0.6,0.8-1.2,1.6-1.6,2.3c-0.4,0.8-0.9,1.9-1.5,3.5L49,11.2l0.5,0.1c0.2,0,0.7-0.1,1.7-0.2
		c0.1,0,0.3,0,0.6,0c0.5,0,0.8,0.1,1.1,0.3c0.2,0.2,0.4,0.5,0.6,0.9c0.1,0.2,0.1,0.4,0.1,0.5c0,0.3-0.3,0.6-0.8,0.7
		c-0.6,0.1-1.6,0.3-3,0.3c-0.2,0-0.5,0-0.8,0c-0.4,0-0.6,0-0.7,0.1c-0.1,0.1-0.3,0.6-0.6,1.5c-0.3,0.9-0.5,1.7-0.6,2.5
		c-0.2,1-0.4,2.1-0.4,3.4c0,1.2,0.1,2,0.2,2.6c0,0.1,0,0.2,0,0.3c0,0.6-0.4,1.1-1.3,1.4C45.3,25.6,45,25.5,44.7,25.1"/>
	<path class="st0" d="M53.6,18.9c0-1.1,0.3-2.3,0.8-3.6c0.5-1.3,1.2-2.5,2-3.6c0.8-1.1,1.6-1.8,2.4-2.1c0.4-0.2,0.9-0.3,1.5-0.3
		c1,0,1.9,0.2,2.6,0.7c0.8,0.4,1.1,1.3,1.1,2.5c0,0.7-0.2,1.5-0.7,2.3c-0.5,0.8-1.1,1.5-1.8,2.1c-0.7,0.6-1.4,0.9-2.1,0.9
		c-1,0-1.9-0.3-2.6-1c-0.4,0.8-0.6,1.5-0.6,2.2c0,0.6,0.1,1,0.2,1.3c0.1,0.3,0.5,0.5,0.9,0.5c0.5,0,0.9-0.1,1.1-0.2
		c0.3-0.1,0.6-0.3,0.8-0.5c0.2-0.2,0.4-0.3,0.6-0.4l0.1-0.1h0c0.4-0.2,0.7-0.4,0.9-0.5c0.2-0.1,0.4-0.2,0.5-0.3
		c0.3,0,0.7,0.1,0.9,0.3c0.3,0.2,0.4,0.4,0.4,0.7c0,0.2-0.2,0.6-0.6,1.1c-0.4,0.5-0.8,0.9-1.2,1.1l-0.4,0.2h0
		c-0.2,0.3-0.4,0.4-0.6,0.4h-0.3c-0.1,0.2-0.4,0.4-0.9,0.5c-0.5,0.2-1,0.3-1.4,0.3C54.9,23.3,53.6,21.8,53.6,18.9 M60.8,14.3
		c0.4-0.5,0.6-1.1,0.6-1.6c0-0.2-0.1-0.5-0.2-0.7c-0.1-0.2-0.3-0.3-0.5-0.3c-0.4,0-0.8,0.2-1.3,0.5c-0.5,0.4-0.9,0.8-1.3,1.4
		l-0.4,0.7c0.1,0,0.2-0.1,0.2-0.1c0.2,0,0.3,0.1,0.4,0.2c0.1,0.2,0.2,0.3,0.3,0.4c0.1,0.1,0.3,0.2,0.5,0.2
		C59.8,15.2,60.4,14.9,60.8,14.3"/>
	<path class="st0" d="M65.7,21.8c-0.3-0.2-0.4-0.4-0.5-0.6c0,0,0-0.1,0-0.3c0-0.3,0.1-0.9,0.4-1.7l0.2-1.1c0.2-1,0.4-1.8,0.6-2.5
		c0.1-0.1,0.2-0.5,0.4-1.1c0.1-0.5,0.3-1,0.5-1.5c0.3-1,0.7-2,1.3-3c0.1-0.1,0.2-0.2,0.3-0.4c0.2-0.2,0.3-0.2,0.3-0.2
		c0.1-0.1,0.3-0.2,0.6-0.2c0.4,0,0.7,0.1,1,0.4c0.3,0.3,0.4,0.7,0.4,1.1c0,0.4-0.2,1-0.5,1.6c-0.2,0.5-0.5,1.1-0.9,1.9
		c-0.3,0.6-0.5,0.9-0.6,1.1c0.3-0.4,0.9-1,1.8-2c0.3-0.3,0.5-0.5,0.8-0.7s0.6-0.4,1.1-0.8c0.5-0.4,0.9-0.6,1.2-0.8
		c0.3-0.1,0.6-0.2,1-0.2c0.2,0,0.3,0,0.4,0c0.3,0,0.6,0.2,0.9,0.6c0.3,0.4,0.5,0.9,0.5,1.4c0,0.2,0,0.4-0.1,0.6
		c-0.3,0-0.5-0.1-0.6-0.1c-0.4,0-0.8,0.1-1.2,0.3c-0.3,0.2-0.6,0.4-0.9,0.5c-0.2,0.2-0.4,0.3-0.4,0.3c-0.8,0.5-1.7,1.2-2.8,2.1
		c-0.5,0.5-0.9,0.8-1.2,1.2c-0.3,0.3-0.5,0.7-0.6,1.1c0,0.1-0.3,0.7-0.6,1.6c-0.4,0.9-0.7,1.4-0.9,1.6c-0.1,0.2-0.4,0.4-0.9,0.4
		c-0.2,0-0.4,0-0.5-0.1C66.2,22.2,66,22.1,65.7,21.8"/>
	<path class="st0" d="M78.1,21c-0.3-0.6-0.5-1.4-0.5-2.4c0-0.2,0-0.6,0.1-1.2c0-0.2,0-0.4,0-0.6c0-0.4,0-0.7-0.1-0.9
		c-0.1-0.2-0.2-0.4-0.5-0.6c-0.1-0.1-0.2-0.2-0.5-0.4c-0.2-0.2-0.4-0.4-0.3-0.5v-0.1c0-0.2,0-0.3,0.1-0.5c0.1-0.2,0.2-0.3,0.2-0.4
		c0.1,0,0.2-0.1,0.4-0.2c0.2-0.1,0.4-0.1,0.5-0.1c0.1,0,0.2,0.1,0.4,0.2c0.2,0.1,0.3,0.2,0.3,0.3c0.1,0.3,0.5-0.2,1-1.3
		c0.3-0.5,0.7-0.9,1.3-1.4c0.5-0.5,1-0.8,1.5-1.1c0.2-0.1,0.5-0.2,1.1-0.3c0.6-0.1,1-0.2,1.3-0.2c0.4,0,0.8,0.1,1.3,0.4
		c0.5,0.3,0.9,0.6,1.2,0.9c0.5,0.3,0.7,1,0.7,1.9c0,0.6-0.1,1-0.3,1.5c-0.1,0.3-0.5,0.8-1.3,1.5c-0.8,0.7-1.4,1.1-1.9,1.3
		c-0.5,0.1-1,0.2-1.7,0.2c-0.6,0-1-0.1-1.2-0.2c-0.2-0.1-0.3-0.1-0.4,0.1c-0.1,0.2-0.2,0.5-0.3,1.1l0,0.3c0,0.2,0.1,0.5,0.2,0.7
		c0.2,0.3,0.3,0.5,0.4,0.6c0.1,0.1,0.3,0.2,0.6,0.2l0.3,0c0.2,0,0.5-0.1,0.8-0.4c0.3-0.2,0.6-0.5,1-0.9c0.4-0.4,0.6-0.6,0.7-0.7
		c0.1-0.2,0.4-0.3,0.9-0.3c0.2,0,0.5,0,0.8,0.1c0.2,0.2,0.3,0.4,0.3,0.7c0,0.4-0.2,0.9-0.5,1.6c-0.1,0.2-0.5,0.6-1,1.1
		c-0.6,0.5-1,0.9-1.4,1.1c-0.6,0.3-1.3,0.5-2,0.5c-0.6,0-1.1-0.1-1.8-0.3C79,22.1,78.4,21.6,78.1,21 M83.5,14.3
		c0.3-0.2,0.7-0.6,1.1-1.1c0.2-0.5,0.2-0.9,0.1-1C84.5,12,84.4,12,84.2,12c-0.2,0-0.5,0.1-0.8,0.4c-0.2,0.1-0.5,0.3-0.9,0.6
		c-0.4,0.4-0.7,0.7-1,1c-0.3,0.3-0.4,0.5-0.2,0.6c0,0.1,0.1,0.1,0.3,0.2c0.3,0,0.5,0.1,0.7,0.1C82.8,14.6,83.2,14.5,83.5,14.3"/>
	<path class="st0" d="M98.2,21.8v-2.3c0-0.4,0-0.8,0.1-1.2c0-0.5,0.1-0.8,0.1-1V17v-0.4c-0.1-0.4-0.2-0.7-0.4-0.7
		c-0.4,0-1.2,0.4-2.2,1.2c-1.1,0.8-2.2,1.7-3.4,2.8c-0.4,0.4-0.7,0.7-0.9,1.1c-0.2,0.3-0.4,0.5-0.5,0.5c-0.1,0.1-0.3,0.1-0.5,0.1
		c-0.3,0-0.7-0.3-1.1-0.7c-0.4-0.4-0.7-0.8-0.8-1.1c0-0.6,0.1-1.2,0.3-1.8c0.2-0.6,0.6-1.3,1-2.2c0.2-0.7,0.5-1.3,0.8-2
		c0.3-0.8,0.6-1.4,0.7-1.8c0.1-0.4,0.2-0.8,0.3-1.3c0,0,0,0,0,0c0-0.1,0-0.2,0.1-0.2c0.1-0.1,0.1-0.1,0.2-0.1c0-0.1,0.2-0.1,0.4-0.1
		c0.6,0,1.1,0.2,1.5,0.5c0.4,0.3,0.6,0.8,0.6,1.5c0,0.3-0.1,0.7-0.2,1c-0.1,0.3-0.4,0.8-0.7,1.5l-0.4,0.7c-0.1,0.1-0.2,0.3-0.3,0.6
		c-0.1,0.3-0.2,0.4-0.2,0.5c0.6-0.4,1.2-0.9,2-1.5c1.1-0.9,2-1.6,2.8-2.1c0.7-0.5,1.2-0.7,1.6-0.7c0.3,0,0.7,0.2,1.2,0.5
		c0.5,0.3,0.8,0.6,0.9,0.9c0,0.2,0,0.4-0.1,0.7c0,0.3-0.1,0.6-0.1,0.8l0,1c0,0.2,0,0.5,0,0.8c0,0.7,0,1.2-0.1,1.5c0,0,0,0.1,0.1,0.1
		c0,0,0,0.1,0,0.1l0,0.1c0,0.2,0.1,0.6,0.4,1.1c0.2,0.5,0.3,0.8,0.3,0.8c0,0.2-0.2,0.5-0.5,0.8c-0.3,0.3-0.6,0.5-0.9,0.5
		C98.9,21.8,98.2,21.8,98.2,21.8"/>
	<path class="st0" d="M105.9,22.3c-0.2-0.1-0.5-0.3-0.7-0.5c-0.1-0.2-0.2-0.4-0.4-0.6c-0.2-0.3-0.4-0.5-0.5-0.6
		c-0.1-0.2-0.1-0.5-0.1-0.9c0-0.6,0.1-1.3,0.3-2.1c0.2-0.8,0.4-1.5,0.6-2.2c0.1-0.2,0.2-0.3,0.2-0.5c0.1-0.2,0.1-0.3,0.1-0.3
		c0-0.2,0.3-0.6,0.9-1.5c0.6-0.8,1-1.4,1.4-1.7c0.2-0.2,0.4-0.4,0.7-0.6c0.3-0.2,0.6-0.3,0.9-0.4c0.1,0,0.3-0.1,0.8-0.3
		c0.5-0.2,0.9-0.3,1.3-0.3c0.4,0,0.7,0.1,1.1,0.2c0.3,0.1,0.6,0.4,0.9,0.7c0.6,0.6,0.9,1.3,0.9,2.3c0,0.2,0,0.4-0.1,0.6
		c-0.1,0.5-0.3,0.8-0.7,1.1c-0.3,0.3-0.7,0.4-1.1,0.4c-0.4,0-0.7-0.1-1-0.4c-0.1-0.2-0.1-0.4-0.1-0.4c0-0.1,0-0.3,0.1-0.6
		c0.1-0.4,0.1-0.7,0.1-0.8c0-0.3-0.1-0.4-0.3-0.4c-0.3,0-0.5,0.1-0.6,0.2c-0.2,0.1-0.5,0.4-0.9,0.9c-0.3,0.3-0.6,0.8-1,1.4
		c-0.4,0.6-0.7,1.2-0.9,1.7c-0.2,0.6-0.3,1-0.4,1.3c-0.1,0.3-0.1,0.4-0.1,0.5c0,0.1,0,0.2,0,0.3c0,0.1,0,0.2,0,0.3
		c0,0.2,0,0.3,0.1,0.4c0.1,0.1,0.2,0.2,0.4,0.3c0,0,0.1,0.1,0.2,0.1c0.1,0.1,0.2,0.1,0.3,0.1c0.1,0,0.3-0.1,0.6-0.2
		c0.3-0.1,0.4-0.2,0.5-0.2c0.3-0.1,0.7-0.4,1.2-0.9l0.8-0.6c0.2-0.1,0.3-0.2,0.4-0.3c0.1-0.1,0.2-0.1,0.3-0.2c0.1,0,0.1,0,0.1,0
		c0,0.1,0,0.1,0.1,0.1c0.1,0,0.1,0,0.2-0.1c0.1-0.1,0.2-0.2,0.5-0.2c0.2,0,0.4,0.1,0.6,0.2c0.2,0.1,0.3,0.2,0.3,0.3l0,0.2
		c0,0.1,0.1,0.2,0.2,0.3c0,0.1,0,0.2-0.1,0.4c-0.1,0.1-0.1,0.3-0.2,0.4c-0.2,0.3-0.5,0.7-0.8,1c-0.3,0.4-0.5,0.6-0.6,0.7h0
		c-0.1,0-0.3,0.1-0.5,0.3c-0.3,0.3-0.6,0.5-0.9,0.5c-0.1,0-0.2,0.1-0.3,0.2c-0.1,0.1-0.2,0.1-0.2,0.2c-0.4,0.4-1.4,0.6-3,0.6
		C106.5,22.4,106.1,22.4,105.9,22.3"/>
	<path class="st0" d="M113.7,29.7c-0.4,0.1-0.7,0.2-1.1,0.2c-0.5,0-0.9-0.1-1.4-0.3c-0.4-0.2-0.8-0.4-1-0.7c0-0.1-0.1-0.2-0.1-0.4
		c0-0.3,0.1-0.7,0.4-0.9c0.3-0.3,0.6-0.4,0.9-0.4c0.1,0,0.2,0,0.3,0.1c0.1,0.1,0.3,0.1,0.5,0.1c0.4,0,0.8-0.2,1.2-0.7
		c0.4-0.4,1-1.8,2-4.1l0.5-1.2c0.3-0.8,0.4-1.3,0.4-1.4c0.1-0.2,0.3-0.7,0.5-1.5c0.1-0.1,0.1-0.1,0.2-0.2c0-0.1,0-0.1-0.1-0.2
		l0.7-2.6c0.1-0.5,0.2-1,0.4-1.4c0.2-0.5,0.2-0.8,0.3-0.9c0,0,0-0.2,0.1-0.5c0-0.3,0.1-0.6,0.3-0.8c0-0.3,0.1-0.6,0.2-1
		c0.1-0.3,0.1-0.6,0.1-0.7c0.2-0.1,0.5-0.2,0.7-0.2c0.4,0,0.7,0.1,0.9,0.3c0.3,0.2,0.4,0.4,0.5,0.6c0.1,0.2,0.2,0.5,0.2,0.9
		c0,0.5-0.1,1.3-0.4,2.5c0,0.3-0.2,1-0.5,2.2c-0.3,1.2-0.6,2.1-0.8,2.7c-0.3,0.9-0.4,1.5-0.4,1.6l-0.6,1.5l-0.4,1
		c0,0.1-0.1,0.2-0.1,0.3c-0.1,0.1-0.1,0.2-0.1,0.3c0,0.2-0.2,0.5-0.4,1c-0.2,0.5-0.5,1-0.8,1.6c-0.2,0.4-0.5,0.9-1,1.6
		c-0.5,0.7-0.9,1.1-1.2,1.3C114.4,29.5,114.1,29.6,113.7,29.7 M121,7c-0.4-0.1-0.7-0.2-0.9-0.3c-0.3-0.2-0.4-0.5-0.4-0.9
		c0-0.5,0.2-1,0.6-1.5c0.4-0.5,0.9-0.8,1.3-0.9c0.3,0,0.7,0.1,1.1,0.4c0.4,0.3,0.7,0.6,0.7,1c0,0.4-0.1,0.8-0.4,1.3
		c-0.3,0.5-0.7,0.8-1.1,1.1C121.7,7.2,121.4,7.1,121,7"/>
	<path class="st0" d="M123.8,21.4c-0.3-0.2-0.5-0.4-0.5-0.4c0-0.1,0-0.2-0.2-0.4c-0.1-0.2-0.2-0.3-0.3-0.5c-0.2-0.2-0.1-0.8,0.4-1.8
		c0.4-1,1-2.2,1.7-3.5c0.1-0.1,0.3-0.4,0.5-0.7c0.2-0.3,0.4-0.5,0.4-0.6c0-0.1,0-0.2,0.1-0.3c0.1-0.1,0.1-0.1,0.2-0.1l0.3-0.5
		c0.1-0.2,0.5-0.7,1.3-1.5c0.8-0.8,1.4-1.3,1.9-1.6c0.4-0.3,0.9-0.4,1.4-0.4c0.5,0,1,0.2,1.4,0.5l0.9,0.8c0.7,0.6,1.1,0.9,1.1,1
		l1.2,1.1l-0.6,1.7c-0.2,0.6-0.3,1.2-0.3,1.7c0,0.9,0.2,1.7,0.7,2.4c0.1,0.2,0.3,0.4,0.5,0.6c0.2,0.1,0.4,0.2,0.8,0.3
		c0.5,0.1,0.7,0.3,0.7,0.7c0,0.5-0.1,0.9-0.3,1.1c-0.2,0.2-0.4,0.4-0.6,0.5c-0.4,0-0.6,0.1-0.7,0.1c-0.7,0-1.2-0.2-1.8-0.5
		c-0.5-0.3-1-0.9-1.4-1.7c-0.1-0.1-0.2-0.4-0.4-0.7c-0.1-0.4-0.2-0.6-0.3-0.7c-0.2,0.2-0.4,0.5-0.8,0.9c-2.3,2.3-4.2,3.5-5.6,3.5
		c-0.5,0-0.9-0.1-1.3-0.4C124.3,21.8,124.1,21.7,123.8,21.4 M128.3,18c0.1-0.1,0.2-0.2,0.4-0.3c0.1-0.1,0.3-0.3,0.4-0.4
		c0.6-0.5,1.1-1,1.5-1.3c0.3-0.3,0.7-0.8,1.1-1.3l0.7-1.2c-0.2-0.5-0.4-0.8-0.6-1c-0.2-0.2-0.4-0.3-0.5-0.3c-0.5,0-1,0.4-1.7,1.2
		c-0.7,0.8-1.5,2-2.4,3.6c-0.3,0.4-0.4,0.8-0.6,1.3c-0.2,0.4-0.3,0.7-0.3,0.9C126.6,19.2,127.3,18.8,128.3,18"/>
	<path class="st0" d="M146.2,22.5c-0.4,0-0.7,0-0.9-0.1c-0.2-0.1-0.4-0.2-0.7-0.4c-0.2-0.2-0.4-0.4-0.4-0.8c0-0.6,0.3-1.2,1-1.9
		c0.9-1.1,1.7-1.9,2.5-2.6c0.2-0.2,0.5-0.3,0.8-0.5c0.3-0.2,0.7-0.5,1.2-0.8l1.3-0.9c0.2-0.1,0.8-0.6,1.8-1.4c-0.1,0-0.3,0-0.8-0.1
		c-0.5-0.1-0.9-0.1-1.4,0c-0.5,0-0.8,0-1,0c-0.2,0-0.3,0-0.5-0.1h-0.5c-0.2,0-0.5-0.2-1-0.5s-0.7-0.6-0.7-0.8l0.5-0.6
		c0.1,0,0.2-0.1,0.3-0.2c0.1-0.1,0.2-0.1,0.3-0.1c0.1,0,0.1,0,0.2,0.1l2.5-0.1c1.3,0,2.3,0.1,2.9,0.1c0.6,0.1,1.1,0.1,1.3,0.3
		c0.3,0.1,0.6,0.3,0.9,0.6c0.2,0.2,0.4,0.5,0.5,0.8c0.1,0.3,0.2,0.6,0.2,0.8c0,0.3-0.1,0.6-0.2,0.7c0,0-0.1,0.1-0.2,0.2
		c-0.1,0.1-0.2,0.2-0.3,0.2l-1.6,1c-0.2,0.2-0.6,0.4-1,0.6c-0.6,0.4-0.9,0.6-1,0.7c-0.2,0.1-0.4,0.2-0.6,0.3
		c-0.2,0.1-0.3,0.3-0.5,0.4c-0.1,0.1-0.3,0.3-0.5,0.5c-0.2,0.2-0.5,0.4-0.7,0.6c-0.3,0.3-0.7,0.6-0.9,0.9c-0.3,0.3-0.5,0.5-0.6,0.6
		c0.1,0,0.3-0.1,0.7-0.1c0.3-0.1,0.8-0.1,1.3-0.1c0.5,0,1.1,0,1.7,0l2.4-0.1c0.4,0,0.8,0,1.3,0c0.5,0,0.8,0,1,0.1
		c0.2,0,0.3,0.2,0.4,0.6c0.1,0.3,0.1,0.6,0.1,0.9c0,0.2,0,0.3,0,0.3c-0.1,0-0.5,0-1.1,0.1c-0.6,0.1-1.3,0.1-2,0.1
		c-0.6,0-2,0.2-4.2,0.5c-0.3,0.1-0.9,0.1-1.8,0.2C147.4,22.4,146.8,22.5,146.2,22.5"/>
	<path class="st0" d="M180.7,21.7c-0.3,0-0.7-0.1-1-0.3c-0.3-0.2-0.5-0.4-0.6-0.8c0-0.1-0.1-0.3-0.3-0.6c-0.2-0.4-0.3-0.8-0.3-1.2
		c0-0.2,0-0.4,0-0.5l0.2-1c0-0.4,0.1-0.7,0.1-0.8v-0.3c0-0.4,0-0.6-0.1-0.6c-0.2,0-0.6,0.4-1.4,1.2c-0.8,0.8-1.4,1.7-1.9,2.5
		c-0.2,0.2-0.3,0.5-0.5,0.9c-0.2,0.4-0.3,0.6-0.4,0.6c-0.1,0.1-0.2,0.1-0.4,0.1c-0.2,0-0.4-0.1-0.7-0.2c-0.2-0.1-0.4-0.3-0.5-0.5
		c0-0.1-0.1-0.2-0.3-0.3c-0.1-0.1-0.2-0.2-0.2-0.5c0-0.4,0.1-1,0.4-1.9c0.2-0.7,0.5-1.4,0.6-1.9c0.2-0.5,0.3-0.9,0.3-1.1
		c0-0.2-0.6,0.2-1.7,1.2c-1.2,1.4-2.3,2.8-3.3,4.1c-0.5,0.7-0.8,1.1-1.1,1.4c-0.3,0.3-0.5,0.4-0.7,0.4c-0.2,0-0.3-0.1-0.5-0.3
		c-0.1-0.1-0.2-0.2-0.5-0.3c-0.2-0.1-0.3-0.2-0.3-0.3c0-0.2-0.1-0.3-0.2-0.3c-0.1-0.1,0.1-0.9,0.7-2.2c0.6-1.3,1.1-2.4,1.6-3.1
		c0.1-0.1,0.2-0.2,0.2-0.3c0-0.1,0-0.2,0-0.2c0-0.1,0.1-0.2,0.2-0.3c0.1-0.2,0.2-0.3,0.3-0.4c0.4-0.7,0.5-1.3,0.5-1.8
		c-0.1-0.1-0.2-0.1-0.3-0.1c-0.1,0-0.2,0-0.2,0.1c0,0-0.2,0.1-0.4,0.1c-0.2,0.1-0.4,0.1-0.5,0.2c-0.5,0.4-0.9,0.5-1.1,0.5
		c-0.3,0-0.5-0.3-0.7-0.8c-0.1-0.2-0.1-0.4-0.1-0.6c0-0.3,0.1-0.5,0.3-0.7c0.2-0.2,0.4-0.3,0.7-0.5c0.3-0.2,0.5-0.3,0.5-0.3
		c0.2-0.1,0.6-0.3,1-0.5c0.4-0.2,0.7-0.3,0.9-0.4c0.3-0.1,0.5-0.1,0.8-0.1c0.7,0,1.3,0.4,1.6,1.1c0.3,0.4,0.5,0.8,0.5,1.2
		c0,0.4-0.2,0.9-0.5,1.6l-0.3,0.5c-0.1,0.1-0.1,0.2-0.1,0.3s0,0.1,0,0.1c0.1,0,0.2-0.1,0.3-0.2c0.1-0.1,0.3-0.3,0.4-0.4
		c0.2-0.2,0.3-0.3,0.4-0.3c0,0,0.1,0,0.1-0.1c0,0,0.1-0.1,0.1-0.3l0.3-0.3c0.1,0,0.2-0.1,0.4-0.2c0.2-0.1,0.4-0.3,0.7-0.6
		c0.2-0.2,0.5-0.3,0.7-0.3c0.1,0,0.2,0,0.3,0c0.4,0,0.8,0.2,1,0.7c0.3,0.5,0.4,1.1,0.4,1.8l-0.7,1.8l1.2-1.5
		c0.2-0.2,0.5-0.5,0.8-0.8c0-0.1,0.1-0.2,0.2-0.3c0.1,0,0.1-0.1,0.2-0.1c0,0,0.1,0,0.1,0c0,0,0.1-0.1,0.1-0.1
		c0.1-0.1,0.2-0.2,0.4-0.3c0.1-0.1,0.2-0.2,0.3-0.3c0.2-0.1,0.5-0.1,0.8-0.1c0.4,0,0.7,0.1,1,0.2c0.3,0.1,0.5,0.4,0.7,0.7
		c0.1,0.1,0.2,0.3,0.3,0.5c0.1,0.2,0.2,0.4,0.3,0.5c0.1,0.2,0.1,0.4,0.1,0.6l-0.1,0.7c0,0-0.1,0.4-0.2,1.1c-0.1,0.2-0.2,0.6-0.2,1.1
		c0,0.3,0,0.5,0.1,0.6c0,0.1,0.1,0.1,0.3,0.1c0.3-0.1,0.5-0.2,0.8-0.3c0.2-0.1,0.5-0.3,0.8-0.6c0.2-0.2,0.4-0.3,0.5-0.3
		c0.2,0,0.4,0.1,0.5,0.3c0.1,0.2,0.3,0.4,0.3,0.6c0.1,0.1,0,0.5-0.4,1.1c-0.3,0.6-0.5,0.9-0.7,0.9c0,0-0.2,0.1-0.4,0.3
		c-0.2,0.2-0.4,0.3-0.5,0.4c-0.4,0.4-0.7,0.6-0.9,0.6c-0.1,0-0.2,0-0.4,0.1c-0.1,0.1-0.3,0.1-0.4,0.1
		C181,21.7,180.8,21.7,180.7,21.7"/>
	<path class="st0" d="M187.2,21.8c-0.4-0.6-0.6-1.3-0.7-2.1c0.1-0.8,0.2-1.4,0.2-1.8c0.2-1.1,0.6-2.4,0.9-3.9
		c0.4-1.5,0.6-2.3,0.7-2.5c0.1-0.2,0.3-0.3,0.5-0.3c0.2,0,0.5,0.1,0.8,0.3c0.3,0.2,0.6,0.5,0.8,0.8c0.2,0.2,0.3,0.5,0.3,0.8
		c0,0.5-0.2,1.5-0.7,3c-0.3,1.1-0.5,1.9-0.6,2.4c-0.1,0.5-0.1,1-0.1,1.5c-0.1,1-0.2,1.7-0.3,2.1c-0.1,0.4-0.2,0.6-0.4,0.5
		C188.1,22.6,187.6,22.4,187.2,21.8 M191.5,8.7c-0.1,0-0.2-0.1-0.4-0.2c-0.2,0-0.5-0.2-0.9-0.6c-0.4-0.4-0.6-0.6-0.6-0.7
		c0-0.3,0-0.7,0.1-1.2c0.1-0.5,0.2-1,0.4-1.4c0.2-0.4,0.4-0.6,0.8-0.6c0.2,0,0.4,0.1,0.6,0.2c0.3,0.1,0.6,0.2,0.9,0.3
		c0.4,0.9,0.6,1.6,0.6,2.2c0,0.9-0.4,1.5-1.3,1.9C191.7,8.7,191.6,8.7,191.5,8.7"/>
	<path class="st0" d="M202.2,7.7c0.2,0.1,0.2,0.3,0.2,0.5c0,0.3-0.2,0.5-0.6,0.7l-0.5,0.5c-0.1,0.1-0.3,0.3-0.5,0.4
		c-0.2,0.2-0.4,0.4-0.6,0.6c-0.2,0-0.7,0.3-1.6,0.9c-0.3,0.8-0.5,1.2-0.5,1.3c0,0.2-0.1,0.4-0.2,0.5c-0.1,0-0.1,0-0.1,0.2
		c0,0.1,0,0.2,0,0.2c0,0.2-0.2,0.8-0.5,1.8l-0.3,1c-0.4,1.5-0.7,2.5-0.9,3.2c-0.2,0.7-0.3,1.2-0.3,1.7c0,0.5-0.1,0.9-0.2,1.2
		c-0.2,0.3-0.3,0.5-0.5,0.6c-0.1,0-0.2,0-0.3,0c-0.5,0-0.9-0.3-1.2-0.8c-0.3-0.5-0.5-1.2-0.5-2.1c0-0.5,0-0.9,0.1-1.3
		c0.2-0.7,0.4-1.1,0.4-1.4c0.1-0.6,0.4-1.7,1.1-3.4l-0.2,0.2c0,0-0.2,0.1-0.4,0.2c-0.2,0.1-0.4,0.2-0.7,0.3
		c-0.3,0.2-0.5,0.3-0.7,0.3c-0.1,0-0.2-0.1-0.4-0.2c-0.3-0.1-0.5-0.2-0.5-0.4c0-0.2,0.4-0.6,1.2-1.2c0.4-0.6,1.3-1.4,2.9-2.5
		c0,0,0-0.1,0-0.2c0,0,0-0.1,0.1-0.3c0.1-0.1,0.1-0.2,0.1-0.3c0.4-0.7,1-2.3,1.9-4.7c0.9-2.4,1.4-3.8,1.4-4.1c0-0.2,0.1-0.3,0.2-0.5
		c0.1-0.2,0.3-0.2,0.5-0.2c0.1-0.1,0.2-0.1,0.4-0.2c0.2,0,0.4-0.1,0.5-0.1l0.5,0.5c0.2,0.2,0.4,0.4,0.6,0.6c0.1,0.2,0.2,0.4,0.2,0.6
		c0,0.4-0.1,0.8-0.2,1.2c-0.1,0.4-0.6,1.3-1.3,2.8L200,7.9c0.3-0.2,0.6-0.3,0.8-0.4c0.2-0.1,0.4-0.1,0.7-0.1
		C201.8,7.5,202,7.6,202.2,7.7"/>
	<path class="st0" d="M202.1,22.3c-0.2-0.1-0.4-0.3-0.7-0.5c-0.4-0.5-0.8-1-1-1.5c-0.2-0.5-0.3-0.9-0.3-1.3c0.1-0.2,0.1-0.3,0.1-0.5
		c0-0.2,0-0.3,0-0.3c-0.1-0.1-0.1-0.2-0.1-0.2s0-0.1,0.1-0.1c0,0,0.1-0.1,0.1-0.1c0.1,0,0.2-0.1,0.1-0.4c0-0.2,0-0.6,0.2-1.2
		c0.2-0.6,0.5-1.2,0.8-1.7c0.2-0.4,0.6-0.9,1.1-1.5c0.5-0.6,0.9-1.1,1.3-1.4c1.1-1,2.1-1.6,3-1.8c0.4-0.1,0.9-0.2,1.3-0.2
		c0.6,0,1.2,0.2,1.5,0.5c0.5,0.2,0.9,0.5,1.1,0.9c0.2,0.4,0.4,0.9,0.4,1.5c0,0.1,0,0.4,0,0.7c0,1.7-0.6,3.4-1.9,5.2
		c-0.5,0.7-1,1.3-1.6,1.8c-0.5,0.5-1.1,0.9-1.9,1.3c-0.4,0.3-0.8,0.5-1.3,0.5c-0.5,0.1-1.1,0.2-1.8,0.2
		C202.5,22.4,202.2,22.4,202.1,22.3 M207.1,17.2c0.2-0.4,0.5-1.1,0.8-2.1c0.1-0.2,0.2-0.6,0.2-1.2c0-0.5-0.1-0.8-0.2-0.9
		c-0.1-0.1-0.2-0.1-0.4-0.1c-0.2,0-0.5,0.2-1,0.5c-0.8,0.7-1.4,1.4-2,2.1c-0.5,0.7-0.9,1.6-1.1,2.5c0,0.1,0,0.2,0,0.4
		c0,0.8,0.3,1.1,0.8,1.1c0.5,0,1.2-0.4,2-1.1C206.6,17.9,206.9,17.6,207.1,17.2"/>
	<path class="st0" d="M215.1,23.2c0,0-0.3-0.1-0.9-0.3c-0.6-0.2-1.1-0.5-1.4-0.8c-0.4-0.3-0.6-0.6-0.6-0.9c0-0.3,0.1-0.4,0.4-0.5
		l0.2-0.1c0,0,0.1,0,0.3,0c0.1,0,0.2,0,0.3,0c0.1,0,0.2,0.1,0.3,0.1c0.2,0,0.4,0.1,0.7,0.1l0.9,0.1c0.4,0,0.9,0,1.3-0.1
		c0.4-0.1,0.6-0.2,0.6-0.3c0-0.1-0.1-0.2-0.3-0.3c-0.2-0.2-0.4-0.2-0.6-0.2c0-0.1-0.3-0.4-1-0.9c-0.4-0.3-0.7-0.6-1.1-0.9
		c-0.4-0.3-0.5-0.5-0.5-0.6l0-0.1v-0.2c-0.2,0-0.3-0.2-0.4-0.6c-0.1-0.4-0.2-0.8-0.2-1.2c0-0.8,0.3-1.6,1-2.5
		c0.7-0.9,1.5-1.8,2.5-2.5c1-0.7,2-1.2,2.9-1.5c0.3-0.2,0.8-0.2,1.5-0.2c0.4,0,0.7,0,0.9,0.1l0.3-0.1c0.3,0,0.6,0.2,1,0.7
		c0.4,0.5,0.7,0.8,0.8,1.1c0,0.7,0,1.3-0.1,1.8c0,0.5-0.2,0.7-0.3,0.7c0,0-0.1,0-0.1,0c0,0-0.1,0.1-0.1,0.2c0,0.3-0.3,0.7-0.8,1
		c-0.6,0.4-1.1,0.6-1.5,0.6l-0.1,0c-0.1,0-0.3-0.2-0.6-0.4c-0.3-0.2-0.4-0.5-0.4-0.7c0-0.1,0.1-0.2,0.4-0.5c0.3-0.3,0.5-0.6,0.7-0.9
		c0.2-0.3,0.3-0.6,0.3-0.9c0-0.1,0-0.2-0.1-0.2c-0.1,0-0.2-0.1-0.5-0.1c-1.2,0.6-2.1,1.1-2.7,1.6c-0.1,0.1-0.1,0.2-0.2,0.3
		c-0.1,0.1-0.1,0.1-0.2,0.1c0,0,0,0,0,0c0,0-0.2,0.1-0.4,0.4c-0.2,0.3-0.5,0.6-0.7,0.9c-0.2,0.3-0.3,0.7-0.4,0.9l-0.1,0.1v0.2
		c0,0,0,0.1,0,0.3c0,0.2,0.1,0.4,0.3,0.6c0.2,0.2,0.5,0.5,1.1,0.9c1,0.8,1.7,1.3,2.1,1.7c0.4,0.4,0.6,0.7,0.7,1
		c0.2,0.4,0.3,0.8,0.3,1.1c0,0.8-0.4,1.4-1.2,1.8c-0.8,0.4-1.9,0.6-3.3,0.6H215.1z M220.6,5.1l0-0.3c0-0.2,0.5-0.8,1.4-1.8
		c0.9-1,1.5-1.5,1.9-1.7c0.2-0.1,0.3-0.2,0.5-0.2c0.3,0,0.6,0.2,0.9,0.5c0.3,0.3,0.4,0.7,0.4,1.2c0,0.2-0.1,0.4-0.4,0.7
		c-0.3,0.3-0.7,0.6-1.3,1.1c-0.8,0.6-1.3,1.1-1.5,1.4c-0.3,0.4-0.6,0.6-0.9,0.6C221,6.7,220.6,6.2,220.6,5.1"/>
	<path class="st0" d="M227.6,22.9c-0.9,0-1.7-0.3-2.4-0.9c-0.7-0.6-1.1-1.4-1.1-2.3l0-0.5c0-1.1,0.2-2.3,0.7-3.7
		c0.5-1.4,1.1-2.5,1.8-3.4c0.6-0.7,1-1.2,1.5-1.6c0.4-0.4,0.8-0.7,1.1-0.8c0.3-0.1,0.7-0.2,1.1-0.3c0.4-0.1,0.8-0.1,1-0.1
		c0.4,0.1,0.9,0.3,1.3,0.5c0.4,0.2,0.6,0.4,0.6,0.7l0.2,0.2c0.2,0,0.3,0.2,0.6,0.7c0.2,0.5,0.3,0.9,0.3,1.3c0,0.2,0,0.4-0.1,0.5
		c-0.1,0.4-0.3,0.8-0.5,1.2c-0.3,0.4-0.5,0.6-0.7,0.6c-0.2,0-0.4,0.1-0.4,0.2c0,0.1-0.1,0.2-0.4,0.2c-0.2,0-0.5-0.1-0.7-0.2
		c-0.2-0.1-0.4-0.2-0.4-0.4c0-0.1,0.1-0.6,0.3-1.3c0.1-0.3,0.1-0.6,0.1-0.8c0-0.4-0.1-0.6-0.4-0.6c-0.1,0-0.2,0-0.5,0.1
		c-0.6,0.3-1.1,0.7-1.4,1.1c-0.3,0.4-0.7,1-0.9,1.7c-0.3,0.7-0.6,1.8-0.9,3.1c-0.1,0.3-0.1,0.5-0.1,0.7c0,0.3,0,0.5,0.1,0.7
		c0.1,0.2,0.1,0.3,0.2,0.3c0.1,0,0.3,0.1,0.6,0.1c0.6,0,1-0.1,1.4-0.3c0.4-0.2,0.8-0.5,1.2-0.8c0.4-0.3,0.6-0.5,0.7-0.5
		c0,0,0.1-0.2,0.3-0.4c0.1-0.2,0.3-0.4,0.4-0.4c0.1-0.2,0.3-0.3,0.5-0.4c0.2,0,0.4-0.1,0.6-0.1h0.4c0.3,0.1,0.6,0.3,0.8,0.6
		c0.3,0.3,0.3,0.5,0.1,0.6c-0.1,0-0.1,0-0.1,0.1c0,0,0,0.1,0,0.1c0,0.1-0.1,0.4-0.5,0.9c-0.4,0.5-0.9,0.9-1.4,1.4
		c-0.5,0.4-0.8,0.7-1,0.7c-0.1,0-0.2,0-0.2,0c-0.1,0-0.1,0.1-0.1,0.2c0,0.1-0.3,0.3-1,0.6c-0.7,0.3-1.2,0.5-1.7,0.6
		C228,22.9,227.8,22.9,227.6,22.9"/>
	<path class="st0" d="M236.1,20.4c0-0.4,0.1-0.8,0.2-1c0-0.1,0-0.2,0.1-0.4c0-0.2,0.1-0.3,0.1-0.3c0-0.1,0.1-0.5,0.3-1.1
		c0.3-0.6,0.6-1.5,1-2.8c0.4-1.3,0.7-2.2,0.9-2.7c0-0.1,0-0.2,0.1-0.3c0.1-0.1,0.2-0.1,0.4-0.2c0.2-0.1,0.6,0,0.9,0.3
		c0.4,0.3,0.7,0.6,0.9,1c0.1,0.1,0.2,0.3,0.2,0.5c0,0.3-0.1,0.8-0.4,1.4c-0.1,0.2-0.2,0.6-0.3,0.9c-0.1,0.4-0.2,0.7-0.3,1
		c-0.3,0.6-0.5,1.2-0.6,1.7c-0.1,0.3-0.1,0.5-0.1,0.7c-0.2,0.8-0.3,1.4-0.4,1.6c-0.1,0.6-0.3,1-0.6,1.3c-0.2,0.3-0.5,0.4-0.8,0.4
		c-0.4,0-0.7-0.2-1-0.5C236.2,21.8,236.1,21.2,236.1,20.4 M239.6,8c-0.1-0.2-0.2-0.5-0.2-0.7c0-0.2,0-0.4,0.1-0.4
		c0.1-0.2,0.3-0.4,0.4-0.6c0.1-0.3,0.2-0.5,0.3-0.6c0.2-0.4,0.3-0.7,0.4-0.9c0.2-0.3,0.3-0.5,0.4-0.5c0.2-0.1,0.3-0.1,0.4-0.1
		c0.3,0,0.6,0.1,1,0.3c0.3,0.2,0.6,0.4,0.8,0.7c0.2,0.4,0.2,0.7,0.2,0.9c0,0.5-0.3,1.1-0.8,1.8c-0.2,0.3-0.5,0.5-0.8,0.7
		c-0.3,0.2-0.6,0.2-0.9,0.2c-0.3,0-0.6-0.1-0.8-0.2C240,8.4,239.8,8.2,239.6,8"/>
	<path class="st0" d="M250.8,21.8c-0.4-0.6-0.6-1.3-0.6-2.1l0-0.4c0.1-0.8,0.3-1.5,0.5-2.2c0.2-0.7,0.6-1.4,1.1-2.2
		c0.4-0.7,1-1.4,2-2.1c1-0.8,1.8-1.3,2.6-1.5c0.5-0.2,1-0.3,1.5-0.3c0.4,0,0.8,0.1,1.2,0.2c0.3,0.2,0.6,0.2,0.7,0.2
		c0.2,0,0.4-0.1,0.4-0.3c0.1-0.1,0.2-0.3,0.3-0.7c0.1-0.3,0.2-0.6,0.4-0.8l0.7-2.2l0.9-2.1l1-2.3c0.6-1.1,1.1-1.7,1.7-1.7
		c0.2,0,0.4,0.1,0.5,0.2c0.3,0.2,0.6,0.4,0.7,0.7c0.2,0.2,0.3,0.5,0.3,0.9c0,0.3-0.1,0.7-0.3,1.2c-0.4,0.7-0.8,1.4-1.1,2.2l-0.5,1.1
		c-0.6,1.4-1,2.3-1.1,2.6l-0.3,0.9c-0.2,0.6-0.3,1.2-0.4,1.6c-0.2,1-0.3,1.5-0.5,1.5c-0.4,0.4-0.8,1.8-1.1,4
		c-0.1,0.5-0.1,1.6-0.1,3.1c0,0.5,0,0.9-0.1,1.1c0,0.2-0.1,0.3-0.3,0.3c-0.4,0-0.6,0.1-0.7,0.1c-0.5,0-0.9-0.1-1.2-0.4
		c-0.3-0.3-0.5-0.5-0.6-0.7c-0.1-0.2-0.1-0.4-0.1-0.7c0-0.3,0-0.6,0-0.9c0-0.3,0-0.5,0-0.7c-0.1-0.1-0.3,0.1-0.7,0.4
		c-0.2,0.2-0.5,0.4-0.8,0.7c-0.8,0.9-1.5,1.5-2.1,1.9c-0.6,0.4-1.3,0.6-1.9,0.6c-0.2,0-0.4,0-0.7-0.1
		C251.6,22.7,251.2,22.4,250.8,21.8 M254.3,19.6c0.3-0.2,0.7-0.5,1.1-0.9c0.4-0.3,0.6-0.6,0.8-0.7c0.6-0.6,1.3-1.4,2-2.4
		c0.7-1,1.1-1.5,1.1-1.7c0-0.2-0.2-0.3-0.5-0.4s-0.6-0.2-0.9-0.1c-0.5,0.1-0.9,0.3-1.3,0.6c-0.4,0.3-0.9,0.8-1.4,1.5
		c-0.7,0.8-1.2,1.6-1.6,2.3c-0.4,0.8-0.6,1.4-0.6,1.7c0,0.2,0.1,0.3,0.2,0.3C253.6,20,254,19.9,254.3,19.6"/>
	<path class="st0" d="M267.6,22.4c-0.3,0-0.5-0.1-0.7-0.2c-0.2-0.1-0.4-0.3-0.6-0.5c-0.5-0.2-1-0.7-1.4-1.2c-0.4-0.6-0.6-1-0.5-1.4
		c0.1-1.1,0.4-2.3,0.9-3.5c0.5-1.3,1.1-2.4,1.9-3.4c0.8-1,1.6-1.7,2.5-2.1c0.4-0.2,0.8-0.2,1.1-0.2c0.7,0,1.2,0.2,1.4,0.7
		c0.2,0.3,0.2,0.6,0.2,0.7c0,0.3-0.2,0.4-0.5,0.5c-0.1,0-0.1,0-0.2,0.1c-0.1,0.1-0.1,0.1-0.1,0.2c0,0,0.1,0,0.3,0
		c0.4,0,0.9-0.1,1.4-0.2c0.6-0.1,0.9-0.2,1.1-0.4c0.1-0.1,0.2-0.1,0.3-0.1l0.5,0.1c0.4,0.1,0.6,0.2,0.6,0.4c0,0.1,0,0.3,0.1,0.4
		c0.1,0.2,0.2,0.3,0.2,0.3c0.1,0,0.2,0.1,0.2,0.2c0,0.1-0.1,0.3-0.2,0.5c-0.1,0.2-0.4,0.4-0.6,0.6c-0.1,0.1-0.3,0.2-0.5,0.3
		c-0.2,0.1-0.3,0.2-0.4,0.3c0,0.1,0,0.2,0,0.4c0.1,0.2,0.1,0.4,0.1,0.7c0,0.8-0.4,1.7-1.1,2.7c-0.7,1-1.6,1.9-2.7,2.7
		c-1.1,0.8-2.1,1.2-3,1.3C267.9,22.4,267.7,22.4,267.6,22.4 M269.1,19.2c0.3-0.3,0.5-0.5,0.7-0.5c0.1,0,0.1-0.1,0.2-0.2
		c0.1-0.1,0.2-0.3,0.3-0.6c0.1-0.3,0.4-0.6,0.7-1c0.4-0.4,0.6-0.7,0.8-1s0.2-0.5,0.2-0.7c0-0.1,0-0.2-0.1-0.5c0-0.1-0.1-0.1-0.2-0.2
		c-0.1-0.1-0.2-0.1-0.4-0.2c-0.1,0-0.2,0-0.3,0.1c-0.1,0.1-0.2,0.1-0.2,0.1c-0.1,0-0.2-0.1-0.4-0.2l-0.5-0.7l-0.6,0.6
		c-0.5,0.5-0.9,1.2-1.3,2.1c-0.3,0.9-0.6,1.7-0.6,2.4c0,0.3,0,0.5,0.2,0.7c0.1,0.1,0.3,0.2,0.6,0.2
		C268.2,19.6,268.6,19.4,269.1,19.2"/>
	<path class="st0" d="M285.8,21c-0.3-0.6-0.5-1.4-0.5-2.4c0-0.2,0-0.6,0.1-1.2c0-0.2,0-0.4,0-0.6c0-0.4,0-0.7-0.1-0.9
		c-0.1-0.2-0.3-0.4-0.5-0.6c-0.1-0.1-0.2-0.2-0.5-0.4c-0.3-0.2-0.4-0.4-0.3-0.5v-0.1c0-0.2,0-0.3,0.1-0.5c0.1-0.2,0.2-0.3,0.2-0.4
		c0.1,0,0.2-0.1,0.4-0.2c0.2-0.1,0.4-0.1,0.5-0.1c0.1,0,0.2,0.1,0.4,0.2c0.2,0.1,0.3,0.2,0.3,0.3c0.1,0.3,0.5-0.2,1-1.3
		c0.3-0.5,0.7-0.9,1.3-1.4c0.5-0.5,1-0.8,1.5-1.1c0.2-0.1,0.5-0.2,1.1-0.3c0.5-0.1,1-0.2,1.3-0.2c0.4,0,0.8,0.1,1.3,0.4
		c0.5,0.3,0.9,0.6,1.2,0.9c0.5,0.3,0.7,1,0.7,1.9c0,0.6-0.1,1-0.3,1.5c-0.1,0.3-0.5,0.8-1.3,1.5c-0.8,0.7-1.4,1.1-1.9,1.3
		c-0.5,0.1-1,0.2-1.7,0.2c-0.6,0-1-0.1-1.2-0.2c-0.2-0.1-0.3-0.1-0.4,0.1c-0.1,0.2-0.2,0.5-0.3,1.1l0,0.3c0,0.2,0.1,0.5,0.2,0.7
		c0.2,0.3,0.3,0.5,0.4,0.6c0.1,0.1,0.3,0.2,0.6,0.2l0.3,0c0.2,0,0.5-0.1,0.8-0.4c0.3-0.2,0.6-0.5,1-0.9c0.4-0.4,0.6-0.6,0.7-0.7
		c0.1-0.2,0.4-0.3,0.9-0.3c0.2,0,0.5,0,0.8,0.1c0.2,0.2,0.3,0.4,0.3,0.7c0,0.4-0.2,0.9-0.5,1.6c-0.1,0.2-0.5,0.6-1,1.1
		c-0.6,0.5-1,0.9-1.4,1.1c-0.6,0.3-1.3,0.5-2,0.5c-0.6,0-1.1-0.1-1.8-0.3C286.7,22.1,286.1,21.6,285.8,21 M291.2,14.3
		c0.3-0.2,0.7-0.6,1.1-1.1c0.2-0.5,0.2-0.9,0.1-1c-0.1-0.1-0.3-0.2-0.5-0.2c-0.2,0-0.5,0.1-0.8,0.4c-0.2,0.1-0.5,0.3-0.9,0.6
		c-0.4,0.4-0.7,0.7-1,1c-0.3,0.3-0.3,0.5-0.2,0.6c0,0.1,0.1,0.1,0.3,0.2c0.3,0,0.5,0.1,0.7,0.1C290.5,14.6,290.9,14.5,291.2,14.3"/>
	<path class="st0" d="M306,21.4c-0.3-0.2-0.6-0.4-0.8-0.8l-0.2-0.3c-0.3-0.8-0.4-1.5-0.4-2.2v-1.5c0-0.2,0-0.4-0.1-0.4
		c-0.2,0-1,0.7-2.3,2.2c-1,1-1.8,1.8-2.5,2.3c-0.7,0.6-1.2,0.8-1.5,0.8c-0.1,0-0.3-0.1-0.6-0.3c-0.3-0.2-0.6-0.3-0.6-0.4
		c-0.2-0.2-0.3-0.3-0.3-0.6c0-0.2-0.1-0.7-0.1-1.3c0-0.7,0.1-1.5,0.4-2.4c0.3-0.9,0.8-2.1,1.5-3.7c0.2-0.3,0.4-0.7,0.5-1.1
		c0.5-1.2,1-2,1.5-2.4c0.2,0,0.3,0,0.4,0c0.3,0,0.6,0.2,1,0.4c0.4,0.2,0.6,0.6,0.7,1c0,0.4-0.1,0.8-0.2,1.1
		c-0.1,0.4-0.4,0.9-0.8,1.4c-0.2,0.3-0.6,1.1-1,2.2c-0.1,0.2-0.3,0.5-0.5,0.8c-0.2,0.4-0.3,0.6-0.3,0.6c0,0,0.1,0,0.2-0.2
		c0.1-0.1,0.2-0.2,0.3-0.4l0.9-0.9c1.8-1.8,3.1-2.7,4.1-2.7c0.5,0,0.9,0.3,1.3,0.8c0.4,0.5,0.6,1.1,0.6,1.9c0,0.1,0,0.5-0.1,1.1v1.9
		c0.5-0.1,0.9-0.3,1.2-0.4c0.6-0.2,1.1-0.3,1.8-0.4c0,0.4-0.3,0.9-0.6,1.5c-0.4,0.6-0.8,1.2-1.3,1.7c-0.5,0.5-0.9,0.7-1.4,0.7
		C306.6,21.7,306.3,21.6,306,21.4"/>
	<path class="st0" d="M320.3,23.1c-0.3-0.2-0.5-0.4-0.6-0.7c-0.1-0.3-0.2-0.6-0.2-0.9c0-0.3-0.1-0.7-0.1-1.2l0-1.1l-1.4,1.2
		c-1.4,1.3-2.7,2-3.9,2c-0.4-0.1-0.8-0.4-1.4-0.9c-0.6-0.5-0.9-1-1.1-1.4c-0.1-0.2-0.1-0.5-0.1-0.8c0-0.9,0.2-1.9,0.7-3.1
		c0.4-1.2,1-2.2,1.7-2.9c0.5-0.7,1.1-1.3,1.8-1.7c0.7-0.4,1.4-0.6,2.1-0.6c0.7,0,1.3,0.1,1.8,0.4c0.3,0.2,0.6,0.2,0.8,0.2
		c0.2,0,0.4-0.1,0.4-0.4c0-0.1,0.2-0.6,0.4-1.4l0.4-1.1c0.5-1.5,0.9-2.7,1.3-3.6c0.4-0.9,0.8-1.9,1.3-3c0.2-0.5,0.5-0.8,0.7-1
		c0.2-0.2,0.5-0.3,0.7-0.3c0.3,0,0.6,0.1,1,0.3c0.3,0.2,0.6,0.4,0.7,0.7c0.1,0.2,0.1,0.3,0.1,0.6c0,0.2-0.1,0.5-0.2,0.8
		c-0.6,1-1.3,2.7-2.2,5c-0.9,2.3-1.5,4.3-2,6c-0.2,0.6-0.3,1.5-0.4,2.5c-0.1,1.1-0.1,2.1-0.1,3.2c0,1,0,1.6,0.1,1.9
		c0,0.1,0.1,0.3,0.1,0.5c0,0.4-0.1,0.6-0.4,0.8c-0.3,0.1-0.6,0.2-1,0.3C320.9,23.4,320.6,23.3,320.3,23.1 M317.3,18.2
		c0.7-0.5,1.2-0.9,1.5-1.3c0.3-0.4,0.5-0.9,0.7-1.5c0-0.1,0.1-0.3,0.1-0.5c0-0.4-0.2-0.8-0.6-1.1c-0.2-0.2-0.5-0.3-0.8-0.3
		c-0.5,0-1,0.2-1.5,0.7c-0.6,0.5-1.1,1.1-1.4,1.8c-0.4,0.7-0.7,1.6-0.9,2.7c0,0.2,0,0.3,0.1,0.4c0.1,0.1,0.2,0.2,0.4,0.2
		c0.2,0,0.4-0.1,0.7-0.2C316.1,19,316.7,18.7,317.3,18.2"/>
	<path class="st0" d="M327.1,22.3c-0.2-0.1-0.4-0.3-0.7-0.5c-0.5-0.5-0.8-1-1-1.5c-0.2-0.5-0.3-0.9-0.3-1.3c0.1-0.2,0.1-0.3,0.1-0.5
		c0-0.2,0-0.3,0-0.3c-0.1-0.1-0.1-0.2-0.1-0.2s0-0.1,0.1-0.1c0,0,0.1-0.1,0.1-0.1c0.1,0,0.2-0.1,0.1-0.4c0-0.2,0-0.6,0.2-1.2
		c0.2-0.6,0.5-1.2,0.8-1.7c0.2-0.4,0.6-0.9,1.1-1.5c0.5-0.6,0.9-1.1,1.3-1.4c1.1-1,2.1-1.6,3-1.8c0.5-0.1,0.9-0.2,1.3-0.2
		c0.7,0,1.2,0.2,1.5,0.5c0.5,0.2,0.9,0.5,1.1,0.9c0.2,0.4,0.4,0.9,0.4,1.5c0,0.1,0,0.4,0,0.7c0,1.7-0.6,3.4-1.9,5.2
		c-0.5,0.7-1,1.3-1.6,1.8c-0.5,0.5-1.1,0.9-1.9,1.3c-0.4,0.3-0.8,0.5-1.3,0.5c-0.5,0.1-1.1,0.2-1.8,0.2
		C327.5,22.4,327.3,22.4,327.1,22.3 M332.2,17.2c0.2-0.4,0.5-1.1,0.8-2.1c0.1-0.2,0.2-0.6,0.2-1.2c0-0.5-0.1-0.8-0.2-0.9
		c-0.1-0.1-0.2-0.1-0.4-0.1c-0.2,0-0.5,0.2-1,0.5c-0.8,0.7-1.4,1.4-2,2.1c-0.5,0.7-0.9,1.6-1.1,2.5c0,0.1,0,0.2,0,0.4
		c0,0.8,0.3,1.1,0.8,1.1c0.5,0,1.2-0.4,2-1.1C331.6,17.9,332,17.6,332.2,17.2"/>
	<path class="st0" d="M337.3,21.8c-0.4-0.6-0.6-1.3-0.6-2.1l0-0.4c0.1-0.8,0.3-1.5,0.5-2.2c0.2-0.7,0.6-1.4,1.1-2.2
		c0.4-0.7,1-1.4,2-2.1c1-0.8,1.8-1.3,2.6-1.5c0.5-0.2,1-0.3,1.5-0.3c0.4,0,0.8,0.1,1.2,0.2c0.3,0.2,0.6,0.2,0.7,0.2
		c0.2,0,0.4-0.1,0.4-0.3c0.1-0.1,0.2-0.3,0.3-0.7c0.1-0.3,0.2-0.6,0.4-0.8l0.7-2.2l0.9-2.1l1-2.3c0.6-1.1,1.1-1.7,1.7-1.7
		c0.2,0,0.4,0.1,0.5,0.2c0.3,0.2,0.6,0.4,0.7,0.7c0.2,0.2,0.3,0.5,0.3,0.9c0,0.3-0.1,0.7-0.3,1.2c-0.4,0.7-0.8,1.4-1.1,2.2l-0.5,1.1
		c-0.6,1.4-1,2.3-1.1,2.6L350,11c-0.2,0.6-0.3,1.2-0.4,1.6c-0.2,1-0.3,1.5-0.5,1.5c-0.4,0.4-0.8,1.8-1.1,4c-0.1,0.5-0.1,1.6-0.1,3.1
		c0,0.5,0,0.9-0.1,1.1c0,0.2-0.1,0.3-0.3,0.3c-0.4,0-0.6,0.1-0.7,0.1c-0.5,0-0.9-0.1-1.2-0.4c-0.3-0.3-0.5-0.5-0.6-0.7
		c-0.1-0.2-0.1-0.4-0.1-0.7c0-0.3,0-0.6,0-0.9c0-0.3,0-0.5,0-0.7c-0.1-0.1-0.3,0.1-0.7,0.4c-0.2,0.2-0.5,0.4-0.8,0.7
		c-0.8,0.9-1.5,1.5-2.1,1.9c-0.6,0.4-1.3,0.6-1.9,0.6c-0.2,0-0.4,0-0.7-0.1C338.1,22.7,337.7,22.4,337.3,21.8 M340.8,19.6
		c0.3-0.2,0.7-0.5,1.1-0.9c0.4-0.3,0.6-0.6,0.8-0.7c0.6-0.6,1.3-1.4,2-2.4c0.7-1,1.1-1.5,1.1-1.7c0-0.2-0.2-0.3-0.5-0.4
		s-0.6-0.2-0.9-0.1c-0.5,0.1-0.9,0.3-1.3,0.6c-0.4,0.3-0.8,0.8-1.4,1.5c-0.7,0.8-1.2,1.6-1.6,2.3c-0.4,0.8-0.6,1.4-0.6,1.7
		c0,0.2,0.1,0.3,0.2,0.3C340.1,20,340.5,19.9,340.8,19.6"/>
	<path class="st0" d="M354,22.4c-0.3,0-0.5-0.1-0.7-0.2c-0.2-0.1-0.4-0.3-0.6-0.5c-0.5-0.2-1-0.7-1.4-1.2c-0.4-0.6-0.5-1-0.5-1.4
		c0.1-1.1,0.4-2.3,0.9-3.5c0.5-1.3,1.1-2.4,1.9-3.4c0.8-1,1.6-1.7,2.5-2.1c0.4-0.2,0.8-0.2,1.1-0.2c0.7,0,1.2,0.2,1.4,0.7
		c0.2,0.3,0.2,0.6,0.2,0.7c0,0.3-0.2,0.4-0.5,0.5c-0.1,0-0.1,0-0.2,0.1c-0.1,0.1-0.1,0.1-0.1,0.2c0,0,0.1,0,0.3,0
		c0.4,0,0.9-0.1,1.4-0.2c0.6-0.1,0.9-0.2,1.1-0.4c0.1-0.1,0.2-0.1,0.3-0.1l0.5,0.1c0.4,0.1,0.6,0.2,0.6,0.4c0,0.1,0,0.3,0.1,0.4
		c0.1,0.2,0.1,0.3,0.2,0.3c0.1,0,0.2,0.1,0.2,0.2c0,0.1-0.1,0.3-0.2,0.5c-0.1,0.2-0.4,0.4-0.6,0.6c-0.1,0.1-0.3,0.2-0.5,0.3
		c-0.2,0.1-0.3,0.2-0.4,0.3c0,0.1,0,0.2,0,0.4c0.1,0.2,0.1,0.4,0.1,0.7c0,0.8-0.4,1.7-1.1,2.7c-0.7,1-1.7,1.9-2.7,2.7
		c-1.1,0.8-2.1,1.2-3,1.3C354.4,22.4,354.2,22.4,354,22.4 M355.6,19.2c0.3-0.3,0.5-0.5,0.7-0.5c0.1,0,0.1-0.1,0.2-0.2
		c0.1-0.1,0.2-0.3,0.3-0.6c0.1-0.3,0.4-0.6,0.7-1c0.4-0.4,0.6-0.7,0.8-1c0.1-0.2,0.2-0.5,0.2-0.7c0-0.1,0-0.2-0.1-0.5
		c0-0.1-0.1-0.1-0.2-0.2c-0.1-0.1-0.2-0.1-0.4-0.2c-0.1,0-0.2,0-0.3,0.1c-0.1,0.1-0.2,0.1-0.2,0.1c-0.1,0-0.2-0.1-0.4-0.2l-0.5-0.7
		l-0.6,0.6c-0.5,0.5-1,1.2-1.3,2.1c-0.3,0.9-0.6,1.7-0.6,2.4c0,0.3,0,0.5,0.2,0.7c0.1,0.1,0.3,0.2,0.6,0.2
		C354.7,19.6,355,19.4,355.6,19.2"/>
	<path class="st0" d="M373,21.4c-0.3-0.2-0.6-0.4-0.8-0.8l-0.2-0.3c-0.3-0.8-0.4-1.5-0.4-2.2v-1.5c0-0.2,0-0.4-0.1-0.4
		c-0.2,0-1,0.7-2.3,2.2c-1,1-1.8,1.8-2.5,2.3c-0.7,0.6-1.2,0.8-1.5,0.8c-0.1,0-0.3-0.1-0.6-0.3c-0.3-0.2-0.6-0.3-0.6-0.4
		c-0.2-0.2-0.3-0.3-0.3-0.6c0-0.2-0.1-0.7-0.1-1.3c0-0.7,0.1-1.5,0.4-2.4c0.3-0.9,0.8-2.1,1.5-3.7c0.2-0.3,0.4-0.7,0.5-1.1
		c0.5-1.2,1-2,1.5-2.4c0.2,0,0.3,0,0.4,0c0.3,0,0.6,0.2,1,0.4c0.4,0.2,0.6,0.6,0.7,1c0,0.4-0.1,0.8-0.2,1.1
		c-0.1,0.4-0.4,0.9-0.8,1.4c-0.2,0.3-0.6,1.1-1,2.2c-0.1,0.2-0.3,0.5-0.5,0.8c-0.2,0.4-0.3,0.6-0.3,0.6c0,0,0.1,0,0.2-0.2
		c0.1-0.1,0.2-0.2,0.3-0.4l0.9-0.9c1.8-1.8,3.1-2.7,4.1-2.7c0.5,0,0.9,0.3,1.3,0.8c0.4,0.5,0.6,1.1,0.6,1.9c0,0.1,0,0.5-0.1,1.1v1.9
		c0.5-0.1,0.9-0.3,1.2-0.4c0.6-0.2,1.1-0.3,1.8-0.4c0,0.4-0.3,0.9-0.6,1.5c-0.4,0.6-0.8,1.2-1.3,1.7c-0.5,0.5-0.9,0.7-1.3,0.7
		C373.7,21.7,373.3,21.6,373,21.4"/>
	<path class="st0" d="M382.4,22.9c-0.9,0-1.7-0.3-2.4-0.9c-0.7-0.6-1.1-1.4-1.1-2.3l0-0.5c0-1.1,0.2-2.3,0.7-3.7
		c0.5-1.4,1.1-2.5,1.8-3.4c0.6-0.7,1-1.2,1.5-1.6c0.4-0.4,0.8-0.7,1.1-0.8c0.3-0.1,0.7-0.2,1.1-0.3c0.4-0.1,0.8-0.1,1-0.1
		c0.4,0.1,0.9,0.3,1.3,0.5c0.4,0.2,0.6,0.4,0.6,0.7l0.2,0.2c0.2,0,0.3,0.2,0.6,0.7s0.3,0.9,0.3,1.3c0,0.2,0,0.4-0.1,0.5
		c-0.1,0.4-0.3,0.8-0.5,1.2c-0.3,0.4-0.5,0.6-0.7,0.6c-0.2,0-0.4,0.1-0.4,0.2c0,0.1-0.1,0.2-0.4,0.2c-0.2,0-0.5-0.1-0.7-0.2
		c-0.2-0.1-0.4-0.2-0.4-0.4c0-0.1,0.1-0.6,0.3-1.3c0.1-0.3,0.1-0.6,0.1-0.8c0-0.4-0.1-0.6-0.4-0.6c-0.1,0-0.2,0-0.5,0.1
		c-0.6,0.3-1.1,0.7-1.4,1.1c-0.3,0.4-0.7,1-0.9,1.7c-0.3,0.7-0.6,1.8-0.9,3.1c-0.1,0.3-0.1,0.5-0.1,0.7c0,0.3,0,0.5,0.1,0.7
		c0.1,0.2,0.1,0.3,0.2,0.3c0.1,0,0.3,0.1,0.6,0.1c0.6,0,1-0.1,1.3-0.3c0.4-0.2,0.8-0.5,1.2-0.8c0.4-0.3,0.6-0.5,0.7-0.5
		c0,0,0.1-0.2,0.3-0.4c0.1-0.2,0.3-0.4,0.4-0.4c0.1-0.2,0.3-0.3,0.5-0.4c0.2,0,0.4-0.1,0.6-0.1h0.4c0.3,0.1,0.6,0.3,0.8,0.6
		c0.3,0.3,0.3,0.5,0.1,0.6c-0.1,0-0.1,0-0.1,0.1c0,0,0,0.1,0,0.1c0,0.1-0.1,0.4-0.5,0.9c-0.4,0.5-0.9,0.9-1.4,1.4
		c-0.5,0.4-0.8,0.7-1,0.7c-0.1,0-0.2,0-0.2,0c-0.1,0-0.1,0.1-0.1,0.2c0,0.1-0.3,0.3-1,0.6c-0.7,0.3-1.2,0.5-1.7,0.6
		C382.8,22.9,382.6,22.9,382.4,22.9"/>
	<path class="st0" d="M385,29.3c-0.7-0.8-1-1.8-1-2.9c0-0.6,0.1-1,0.4-1.2c0.3-0.2,0.5-0.3,0.8-0.3c0.1,0,0.3,0.2,0.6,0.5
		c0.3,0.3,0.4,0.6,0.4,0.8c0,0.4,0.2,0.8,0.5,1c0.3,0.3,0.7,0.4,1,0.4c0.3,0,0.6-0.1,0.8-0.3c0.2-0.2,0.5-0.7,0.8-1.4
		c0.3-0.5,0.5-0.9,0.6-1.2c0.1-0.3,0.2-0.6,0.3-1.1l0.2-0.8c0.2-0.7,0.5-1.8,0.7-3.2c0.2-0.9,0.3-1.6,0.4-2.2c0.1-0.5,0.3-1,0.5-1.3
		c0.1-0.7,0.3-1.4,0.6-2.3c0.3-0.9,0.6-1.6,0.8-2.3c0.3-0.7,0.5-1.1,0.5-1.1c0.2-0.2,0.5-0.2,1-0.2c0.6,0,1.3,0.2,1.9,0.6
		c0.6,0.4,1,0.9,1,1.3c0,0.2-0.1,0.4-0.2,0.5c-0.1,0.1-0.2,0.2-0.4,0.2c-0.1,0-0.2,0-0.4-0.1c-0.1-0.1-0.2-0.1-0.3-0.1
		c-0.2,0-0.6,0.5-0.9,1.4c-0.4,0.9-0.7,1.9-0.9,2.8l-0.3,1.1c-0.2,0.8-0.4,1.4-0.4,1.6c-0.3,1.7-0.6,3.1-1,4.3l-0.1,0.2
		c0,0.2-0.1,0.4-0.2,0.6c-0.7,2.1-1.5,3.6-2.5,4.5c-1,0.9-1.9,1.3-2.8,1.3C386.4,30.5,385.6,30.1,385,29.3 M395.8,6.4
		c-0.3-0.3-0.5-0.6-0.5-1c0-0.2,0.1-0.6,0.4-1c0-0.1,0.1-0.3,0.2-0.5c0.1-0.3,0.2-0.5,0.2-0.6c0.6-0.3,1.1-0.5,1.6-0.5
		c0.4,0,0.7,0.1,1,0.4c0.2,0.2,0.4,0.6,0.4,1c0,0.6-0.2,1.2-0.6,1.8c-0.4,0.6-0.9,1-1.5,1C396.5,6.9,396.1,6.7,395.8,6.4"/>
	<path class="st0" d="M399,21.4c-0.3-0.1-0.4-0.2-0.5-0.2c0-0.1,0-0.2-0.1-0.4c-0.1-0.2-0.1-0.3-0.1-0.3c-0.2-0.1-0.4-0.2-0.5-0.5
		c-0.1-0.2-0.2-0.4-0.1-0.7c0.3-0.5,0.9-1.8,1.7-3.7c0.8-1.9,1.3-3.1,1.4-3.4c0-0.5,0.2-0.8,0.5-1c0.2-0.1,0.3-0.2,0.5-0.2
		c0.4,0,0.7,0.3,1.1,0.8c0.3,0.5,0.5,1.1,0.5,1.8c0,0.3-0.3,1-0.8,2.3c-0.5,1.3-1.1,2.5-1.7,3.8c-0.4,0.7-0.6,1.2-0.8,1.4
		c-0.2,0.2-0.4,0.3-0.6,0.3C399.4,21.6,399.3,21.5,399,21.4 M403.1,8.3c-0.4-0.2-0.7-0.6-1-1c-0.3-0.4-0.4-0.8-0.4-1.2
		c0-0.1,0.2-0.5,0.7-1.2c0.3-0.4,0.5-0.7,0.5-0.8c0.2,0,0.4,0,0.6,0.1c0.2,0.1,0.5,0.1,0.6,0.2c0.1,0.3,0.4,0.7,0.8,1.2
		c0.3,0.3,0.5,0.6,0.6,0.8c0.1,0.2,0.2,0.5,0.2,0.7c0,0.5-0.1,0.9-0.4,1.1c-0.3,0.2-0.7,0.4-1.2,0.4C403.8,8.6,403.5,8.5,403.1,8.3"
		/>
</g>
</svg>
