<svg version="1.1" id="Warstwa_1" xmlns="http://www.w3.org/2000/svg" xmlns:xlink="http://www.w3.org/1999/xlink" x="0px" y="0px" viewBox="0 0 1847.23 178.41"
	 style="enable-background:new 0 0 1847.23 178.41;" xml:space="preserve">
		<path fill="#E63021" d="M148.63,134.19c-1.26-0.5-2.74-1.2-4.42-2.08c-1.68-0.88-3.28-2.04-4.8-3.47
			c-1.51-1.43-2.69-3.16-3.53-5.17c-0.84-2.44-1.41-4.84-1.7-7.19c-0.3-2.35-0.4-5.09-0.32-8.2c0-4.37,0.32-8.18,0.95-11.42
			c0.63-3.24,1.62-6.54,2.97-9.91c0.17-0.25,0.48-0.99,0.95-2.21c0.46-1.22,1.01-2.54,1.64-3.98c0.63-1.43,1.11-2.52,1.45-3.28
			c0.67-1.43,1.7-3.34,3.09-5.74c1.39-2.4,2.88-4.73,4.48-7c2.44-3.62,4.5-6.58,6.18-8.9c1.68-2.31,3.3-4.27,4.86-5.87
			c1.56-1.6,3.28-3.16,5.18-4.67c1.89-1.51,4.27-3.24,7.13-5.17c1.85-1.34,4.23-2.19,7.13-2.52c2.9-0.33,5.74,0.11,8.52,1.33
			c2.78,1.22,4.84,3.51,6.18,6.88c0.92,1.77,1.35,3.98,1.26,6.63c-0.08,2.65-0.59,5.47-1.51,8.46c-0.93,2.99-2.1,5.79-3.53,8.39
			c-1.43,2.61-3.03,4.71-4.8,6.31c-1.09,1.01-2.55,1.18-4.35,0.5c-1.81-0.67-3.3-1.56-4.48-2.65c-0.76-1.43-1.16-2.27-1.2-2.52
			c-0.04-0.25,0.1-0.42,0.44-0.5c0.5-0.59,1.18-1.6,2.02-3.03c0.84-1.43,1.68-2.97,2.52-4.61c0.84-1.64,1.43-2.97,1.77-3.98
			c0.67-3.53,1.14-5.87,1.39-7s0-2.08-0.76-2.84c-0.34-0.33-0.82-0.46-1.45-0.38c-0.63,0.08-1.66,0.5-3.09,1.26
			c-1.94,0.84-4.23,2.55-6.88,5.11c-2.65,2.57-5.28,5.62-7.89,9.15c-3.37,4.46-6.18,8.42-8.46,11.86c-2.27,3.45-4,6.99-5.17,10.6
			c-0.17,0.34-0.63,1.43-1.39,3.28c0.08,0.34-0.04,1.16-0.38,2.46c-0.34,1.31-0.72,2.42-1.14,3.34c-0.93,3.87-1.47,7.6-1.64,11.17
			c-0.17,3.58,0.06,6.69,0.69,9.34s1.58,4.61,2.84,5.87c1.09,0.76,2.48,1.01,4.17,0.76c1.68-0.25,3.62-0.84,5.81-1.77
			c2.19-0.92,4.54-1.93,7.07-3.03c2.02-0.84,3.87-1.77,5.55-2.78c1.68-1.01,2.94-1.89,3.79-2.65c0.67-0.5,1.53-1.03,2.59-1.58
			c1.05-0.55,1.96-0.82,2.71-0.82c1.18-0.42,2.06-0.08,2.65,1.01c0.59,1.09,0.88,2.48,0.88,4.17c0,1.18-0.84,2.61-2.52,4.29
			c-1.68,1.68-3.53,3.11-5.55,4.29c-0.67,0.67-1.58,1.28-2.71,1.83c-1.14,0.55-2.29,1.03-3.47,1.45
			c-1.77,1.35-3.96,2.65-6.56,3.91c-2.61,1.26-5.24,2.23-7.89,2.9C153.23,134.49,150.81,134.61,148.63,134.19z"/>
		<path fill="#E63021" d="M202.14,124.98c-1.09,0-1.96-0.21-2.59-0.63c-0.63-0.42-1.41-1.01-2.33-1.77c-1.6-1.68-2.88-3.49-3.85-5.43
			c-0.97-1.93-1.33-3.62-1.07-5.05c0.25-0.67,0.34-1.64,0.25-2.9c-0.42-0.42-0.55-0.69-0.38-0.82c0.17-0.13,0.34-0.36,0.5-0.69
			c0.5,0,0.67-0.46,0.5-1.39c-0.17-0.67,0.1-2.12,0.82-4.35c0.71-2.23,1.7-4.35,2.97-6.37c0.5-0.84,1.26-1.96,2.27-3.34
			c1.01-1.39,2.12-2.78,3.34-4.17c1.22-1.39,2.33-2.5,3.34-3.35c2.1-1.77,4.06-3.2,5.87-4.29c1.81-1.09,3.64-1.85,5.49-2.27
			c1.85-0.42,3.77-0.63,5.74-0.63c1.98,0,3.6,0.67,4.86,2.02c1.93,0.84,3.3,1.98,4.1,3.41c0.8,1.43,1.33,3.28,1.58,5.55
			c0.25,2.52,0,5.62-0.76,9.28c-0.76,3.66-2.82,7.89-6.18,12.68c-2.1,3.03-4.17,5.39-6.18,7.07c-2.02,1.68-4.25,3.24-6.69,4.67
			c-1.77,1.18-3.66,1.89-5.68,2.15C206.05,124.6,204.08,124.81,202.14,124.98z M215.02,109.58c1.85-1.6,3.18-3.36,3.98-5.3
			c0.8-1.93,1.66-4.21,2.59-6.82c0.34-0.5,0.57-1.34,0.69-2.52c0.13-1.18,0.15-2.33,0.06-3.47c-0.08-1.14-0.38-1.79-0.88-1.96
			c-0.76-0.59-1.51-0.74-2.27-0.44c-0.76,0.3-1.73,0.86-2.9,1.7c-2.52,2.1-4.86,4.52-7,7.26c-2.15,2.74-3.64,6.08-4.48,10.03
			c-0.25,2.1-0.02,3.68,0.69,4.73c0.71,1.05,1.89,1.35,3.53,0.88C210.66,113.22,212.66,111.85,215.02,109.58z"/>
		<path fill="#E63021" d="M282.54,122.83c-1.85-0.17-3.39-0.57-4.61-1.2c-1.22-0.63-2.21-1.91-2.97-3.85
			c-0.34-1.34-0.48-2.75-0.44-4.23c0.04-1.47,0.15-2.9,0.32-4.29c0.17-1.39,0.25-2.59,0.25-3.6c0-0.17,0-0.5,0-1.01
			c0-0.5,0-0.97,0-1.39c-0.17-1.26-0.49-2.04-0.95-2.33c-0.46-0.29-1.24-0.23-2.33,0.19c-1.77,0.84-3.68,1.96-5.74,3.34
			c-2.06,1.39-4.21,2.99-6.44,4.8c-2.23,1.81-4.52,3.72-6.88,5.74c-1.85,2.02-3.22,3.66-4.1,4.92c-0.88,1.26-1.79,1.89-2.71,1.89
			c-0.67,0.34-1.39,0.25-2.15-0.25s-1.56-1.09-2.4-1.77c-0.59-0.67-1.28-1.53-2.08-2.59c-0.8-1.05-1.28-1.75-1.45-2.08
			c0-1.34,0.1-2.57,0.32-3.66c0.21-1.09,0.55-2.23,1.01-3.41c0.46-1.18,1.03-2.52,1.7-4.04c0.33-0.59,0.65-1.2,0.95-1.83
			c0.29-0.63,0.65-1.33,1.07-2.08c0.33-1.18,0.82-2.52,1.45-4.04c0.63-1.51,1.24-2.94,1.83-4.29c0.92-2.19,1.64-4.08,2.15-5.68
			c0.5-1.6,0.92-3.32,1.26-5.17c-0.08-0.17-0.04-0.42,0.13-0.76c0.17-0.34,0.42-0.55,0.76-0.63h0.13h0.13
			c0.59-0.42,1.7-0.48,3.34-0.19c1.64,0.3,2.88,0.78,3.72,1.45c1.77,1.51,2.61,3.49,2.52,5.93c-0.08,2.44-1.35,5.64-3.79,9.59
			c-0.59,1.35-1.2,2.59-1.83,3.72c-0.63,1.14-0.95,1.92-0.95,2.33c1.35-1.01,2.48-1.87,3.41-2.59c0.92-0.71,1.72-1.28,2.4-1.7
			c0.42-0.42,1.35-1.2,2.78-2.33c1.43-1.14,2.99-2.33,4.67-3.6c1.68-1.26,3.03-2.23,4.04-2.9c0.92-0.67,2.1-1.37,3.53-2.08
			c1.43-0.71,2.31-1.07,2.65-1.07c0.84,0,1.87,0.3,3.09,0.88c1.22,0.59,2.35,1.28,3.41,2.08c1.05,0.8,1.66,1.54,1.83,2.21
			c0,0.34-0.04,0.78-0.13,1.33c-0.08,0.55-0.13,1.03-0.13,1.45c-0.08,1.35-0.11,2.97-0.06,4.86c0.04,1.89,0.06,3.79,0.06,5.68
			s-0.17,3.6-0.5,5.11c0.17,0.25,0.29,0.5,0.38,0.76c-0.08,0.08-0.08,0.34,0,0.76c0.17,0.59,0.36,1.18,0.57,1.77
			c0.21,0.59,0.48,1.24,0.82,1.96c0.33,0.72,0.71,1.62,1.14,2.71c-0.08,1.09-0.69,2.17-1.83,3.22
			C284.75,121.93,283.63,122.58,282.54,122.83z"/>
		<path fill="#E63021" d="M303.37,136.84c-1.09,0.08-2.19-0.59-3.28-2.02c-1.09-1.43-2-3.33-2.71-5.68c-0.72-2.36-1.07-4.92-1.07-7.7
			c-0.34-3.45-0.04-7.66,0.88-12.62c0.93-4.96,2.31-10.77,4.17-17.42c0.67-2.27,1.64-5.05,2.9-8.33c1.26-3.28,2.59-6.52,3.98-9.72
			c1.39-3.2,2.63-5.91,3.72-8.14c1.09-2.23,1.77-3.47,2.02-3.72c0.5,0.17,0.76-0.21,0.76-1.14c0-0.17,0.34-0.8,1.01-1.89
			c0.67-1.09,1.3-2.27,1.89-3.53c1.09-1.6,2.5-3.3,4.23-5.11c1.72-1.81,3.49-3.47,5.3-4.99c1.81-1.51,3.39-2.52,4.73-3.03
			c1.26-0.5,2.52-0.76,3.79-0.76c1.6,0,3.34,0.53,5.24,1.58c1.89,1.05,3.53,2.36,4.92,3.91c1.39,1.56,2.08,3.14,2.08,4.73
			c0,1.35-0.3,2.65-0.88,3.91c-0.25,1.26-0.76,2.67-1.51,4.23c-0.76,1.56-1.5,2.99-2.21,4.29c-0.72,1.31-1.28,2.25-1.7,2.84
			c-2.44,1.85-4.33,2.57-5.68,2.15c-1.35-0.42-1.81-0.92-1.39-1.51c0-0.33,0.13-1.07,0.38-2.21c0.25-1.14,0.42-2,0.5-2.59
			c0-0.17,0.19-0.67,0.57-1.51c0.38-0.84,0.57-1.68,0.57-2.52c0.76-3.03,1.11-5.01,1.07-5.93c-0.04-0.92-0.44-1.39-1.2-1.39
			c-0.42-0.08-0.93,0-1.51,0.25c-0.59,0.25-1.07,0.57-1.45,0.95c-0.38,0.38-0.57,0.78-0.57,1.2c0,0.25,0,0.42,0,0.5
			c-0.25-0.08-0.99,0.61-2.21,2.08c-1.22,1.47-2.59,3.24-4.1,5.3c-1.51,2.06-2.78,3.93-3.79,5.62c-0.67,1.43-1.41,3.05-2.21,4.86
			c-0.8,1.81-1.92,4.57-3.34,8.27l-1.01,3.03l2.02,0.25c0.67,0.08,1.53,0.02,2.59-0.19c1.05-0.21,2.25-0.44,3.6-0.69
			c2.86-0.42,4.82-0.15,5.87,0.82c1.05,0.97,1.87,2.13,2.46,3.47c0.92,2.02,0.42,3.39-1.51,4.1c-1.94,0.72-6.1,1.24-12.5,1.58
			c-1.35-0.17-2.5-0.23-3.47-0.19c-0.97,0.04-1.62,0.23-1.96,0.57c-0.34,0.17-0.8,1.07-1.39,2.71c-0.59,1.64-1.2,3.58-1.83,5.81
			c-0.63,2.23-1.12,4.35-1.45,6.37c-0.67,2.61-1.09,5.41-1.26,8.39c-0.17,2.99-0.17,5.76,0,8.33c0.17,2.57,0.42,4.52,0.76,5.87
			c0.5,2.02,0.08,3.51-1.26,4.48C305.55,135.73,304.38,136.42,303.37,136.84z"/>
		<path fill="#E63021" d="M347.79,128.13c-4.63,0-8.18-1.35-10.67-4.04c-2.48-2.69-3.72-6.82-3.72-12.37c0-3.03,0.57-6.35,1.7-9.97
			c1.14-3.62,2.65-7.15,4.54-10.6c1.89-3.45,3.98-6.46,6.25-9.02c2.27-2.57,4.54-4.35,6.82-5.36c0.84-0.42,1.75-0.74,2.71-0.95
			c0.97-0.21,1.91-0.32,2.84-0.32c1.01,0,2.12,0.06,3.34,0.19c1.22,0.13,2.38,0.4,3.47,0.82c1.93,0.59,3.64,1.73,5.11,3.41
			c1.47,1.68,2.21,4.12,2.21,7.32c0,0.84-0.08,1.75-0.25,2.71c-0.17,0.97-0.46,1.92-0.88,2.84c-1.09,2.78-2.76,5.43-4.99,7.95
			c-2.23,2.52-4.57,4.29-7.01,5.3c-0.67,0.34-1.33,0.57-1.96,0.69c-0.63,0.13-1.28,0.19-1.96,0.19c-1.77,0-3.34-0.25-4.73-0.76
			c-1.39-0.5-2.67-1.18-3.85-2.02l-1.01-0.88l-0.63,1.26c-0.59,1.6-0.99,2.95-1.2,4.04c-0.21,1.09-0.32,1.89-0.32,2.4
			c0,1.01,0.04,2.04,0.13,3.09c0.08,1.05,0.34,1.92,0.76,2.59c0.34,0.42,0.78,0.76,1.33,1.01c0.55,0.25,1.24,0.38,2.08,0.38
			c0.5,0,0.99-0.02,1.45-0.06c0.46-0.04,0.86-0.1,1.2-0.19c1.51-0.33,2.76-0.9,3.72-1.7c0.97-0.8,2-1.49,3.09-2.08l0.5-0.25
			l-0.13-0.38c1.43-0.76,2.4-1.24,2.9-1.45c0.5-0.21,0.88-0.4,1.14-0.57c0.34-0.34,0.71-0.5,1.14-0.5
			c1.18-0.17,2.33,0.15,3.47,0.95c1.14,0.8,1.7,1.79,1.7,2.97c0,0.5-0.36,1.31-1.07,2.4c-0.72,1.09-1.6,2.17-2.65,3.22
			c-1.05,1.05-2.13,1.87-3.22,2.46c-0.25,0.08-0.5,0.19-0.76,0.32s-0.5,0.27-0.76,0.44h0.13c-0.76,1.01-1.51,1.51-2.27,1.51h-1.01
			c-0.34,0.59-1.43,1.24-3.28,1.96C351.37,127.77,349.56,128.13,347.79,128.13z M354.36,97.71c0.76,0,1.45-0.13,2.08-0.38
			c0.63-0.25,1.24-0.55,1.83-0.88c2.02-1.43,3.32-3.28,3.91-5.55c0.59-2.27,0.38-4-0.63-5.18c-0.17-0.25-0.38-0.44-0.63-0.57
			s-0.55-0.19-0.88-0.19c-0.93,0-1.96,0.3-3.09,0.88c-1.14,0.59-2.25,1.43-3.34,2.52c-1.09,1.09-2.1,2.4-3.03,3.91l-1.64,2.65
			c0.17-0.08,0.32-0.15,0.44-0.19c0.13-0.04,0.23-0.06,0.32-0.06c0.76,0,1.26,0.25,1.51,0.76s0.57,1.01,0.95,1.51
			C352.53,97.46,353.26,97.71,354.36,97.71z"/>
		<path fill="#E63021" d="M380.99,123.97c-0.59,0-1.37-0.42-2.33-1.26c-0.97-0.84-1.54-1.6-1.7-2.27c-0.25-0.67-0.23-1.66,0.06-2.97
			c0.29-1.3,0.74-2.84,1.33-4.61c0.67-2.78,1.14-4.8,1.39-6.06c0.25-1.26,0.5-2.36,0.76-3.28c0.25-0.92,0.59-2.27,1.01-4.04
			c0.5-1.09,0.9-2.17,1.2-3.22c0.29-1.05,0.63-2.12,1.01-3.22c0.38-1.09,0.82-2.19,1.33-3.28c0.59-2.19,1.33-4.27,2.21-6.25
			c0.88-1.98,1.75-3.64,2.59-4.99c0.17-0.25,0.55-0.71,1.14-1.39c0.59-0.67,1.05-1.01,1.39-1.01c0.67-0.67,1.6-0.9,2.78-0.69
			c1.18,0.21,2.19,0.65,3.03,1.33c1.01,1.09,1.58,2.38,1.7,3.85c0.13,1.47-0.49,3.51-1.83,6.12c-1.01,2.61-1.96,4.65-2.84,6.12
			c-0.88,1.47-1.75,3.18-2.59,5.11c0.92-1.34,2.06-2.73,3.41-4.17c1.35-1.43,2.4-2.57,3.16-3.41c1.09-1.18,2.12-2.12,3.09-2.84
			c0.97-0.71,2.29-1.62,3.98-2.71c1.43-1.01,2.88-1.93,4.35-2.78c1.47-0.84,3.26-1.09,5.36-0.76c0.84-0.08,1.75,0.34,2.71,1.26
			c0.97,0.93,1.72,2.13,2.27,3.6c0.55,1.47,0.52,3.05-0.06,4.73c-1.94-0.42-3.66-0.36-5.17,0.19c-1.51,0.55-2.8,1.2-3.85,1.96
			c-1.05,0.76-1.87,1.35-2.46,1.77c-0.84,0.5-1.81,1.16-2.9,1.96c-1.09,0.8-2.27,1.68-3.53,2.65c-1.26,0.97-2.61,2.04-4.04,3.22
			c-2.02,1.68-3.53,3.16-4.54,4.42c-1.01,1.26-1.81,2.61-2.4,4.04c-0.5,1.26-1.14,2.78-1.89,4.54s-1.47,3.34-2.15,4.73
			c-0.67,1.39-1.22,2.25-1.64,2.59c-0.42,0.84-1.28,1.31-2.59,1.39C382.4,124.43,381.49,124.31,380.99,123.97z"/>
		<path fill="#E63021" d="M431.1,124.73c-3.28-1.35-5.55-3.53-6.82-6.56s-1.6-7.07-1.01-12.12c0.17-2.61,0.08-4.35-0.25-5.24
			c-0.34-0.88-0.97-1.75-1.89-2.59c-0.25-0.33-0.84-0.9-1.77-1.7c-0.93-0.8-1.35-1.41-1.26-1.83c-0.08-0.59,0.04-1.33,0.38-2.21
			c0.34-0.88,0.63-1.37,0.88-1.45c0.59-0.25,1.2-0.55,1.83-0.88c0.63-0.33,1.11-0.42,1.45-0.25c0.34,0,0.86,0.21,1.58,0.63
			c0.71,0.42,1.07,0.8,1.07,1.14c0.33,0.59,0.86,0.34,1.58-0.76c0.71-1.09,1.49-2.48,2.33-4.17c0.84-1.34,1.89-2.61,3.16-3.79
			c1.26-1.18,2.54-2.25,3.85-3.22c1.3-0.97,2.42-1.7,3.34-2.21c0.42-0.17,1.24-0.42,2.46-0.76c1.22-0.33,2.5-0.61,3.85-0.82
			c1.35-0.21,2.35-0.27,3.03-0.19c1.51,0.08,3.11,0.72,4.8,1.89c1.68,1.18,2.99,2.27,3.91,3.28c1.09,0.76,1.83,1.92,2.21,3.47
			c0.38,1.56,0.52,3.18,0.44,4.86c-0.08,1.68-0.42,3.11-1.01,4.29c-0.25,0.84-1.14,2.02-2.65,3.53s-3.18,2.97-4.99,4.35
			c-1.81,1.39-3.34,2.33-4.61,2.84c-1.09,0.25-2.4,0.44-3.91,0.57c-1.51,0.13-2.92,0.13-4.23,0c-1.31-0.13-2.21-0.32-2.71-0.57
			c-0.59-0.34-1.07-0.23-1.45,0.32c-0.38,0.55-0.69,2-0.95,4.35c-0.08,0.93-0.06,1.73,0.06,2.4c0.13,0.67,0.27,1.18,0.44,1.51
			c0.59,1.01,1.18,1.75,1.77,2.21c0.59,0.46,1.68,0.61,3.28,0.44c1.6-0.17,3.22-1.16,4.86-2.97c1.64-1.81,3.13-3.26,4.48-4.35
			c0.34-0.59,1.07-0.99,2.21-1.2c1.14-0.21,2.5-0.1,4.1,0.32c0.92,0.59,1.37,1.51,1.33,2.78c-0.04,1.26-0.74,3.11-2.08,5.55
			c-0.25,0.59-0.95,1.45-2.08,2.59c-1.14,1.14-2.36,2.27-3.66,3.41c-1.31,1.14-2.38,1.96-3.22,2.46
			c-2.52,1.35-5.01,1.98-7.45,1.89C435.34,125.9,433.12,125.48,431.1,124.73z M440.44,96.33c1.26-0.33,2.33-0.67,3.22-1.01
			c0.88-0.33,1.75-0.88,2.59-1.64c0.84-0.76,1.81-1.89,2.9-3.41c0.34-0.92,0.52-1.72,0.57-2.4c0.04-0.67-0.02-1.09-0.19-1.26
			c-0.67-0.67-1.41-0.9-2.21-0.69c-0.8,0.21-1.66,0.65-2.59,1.33c-0.59,0.25-1.41,0.78-2.46,1.58c-1.05,0.8-2.06,1.68-3.03,2.65
			c-0.97,0.97-1.73,1.85-2.27,2.65c-0.55,0.8-0.65,1.28-0.32,1.45c-0.17,0.34,0.32,0.55,1.45,0.63
			C439.24,96.28,440.01,96.33,440.44,96.33z"/>
		<path fill="#E63021" d="M508.09,122.83c-1.85-0.17-3.39-0.57-4.61-1.2c-1.22-0.63-2.21-1.91-2.97-3.85
			c-0.34-1.34-0.48-2.75-0.44-4.23c0.04-1.47,0.15-2.9,0.32-4.29c0.17-1.39,0.25-2.59,0.25-3.6c0-0.17,0-0.5,0-1.01
			c0-0.5,0-0.97,0-1.39c-0.17-1.26-0.49-2.04-0.95-2.33c-0.46-0.29-1.24-0.23-2.33,0.19c-1.77,0.84-3.68,1.96-5.74,3.34
			c-2.06,1.39-4.21,2.99-6.44,4.8c-2.23,1.81-4.52,3.72-6.88,5.74c-1.85,2.02-3.22,3.66-4.1,4.92c-0.88,1.26-1.79,1.89-2.71,1.89
			c-0.67,0.34-1.39,0.25-2.15-0.25s-1.56-1.09-2.4-1.77c-0.59-0.67-1.28-1.53-2.08-2.59c-0.8-1.05-1.28-1.75-1.45-2.08
			c0-1.34,0.1-2.57,0.32-3.66c0.21-1.09,0.55-2.23,1.01-3.41c0.46-1.18,1.03-2.52,1.7-4.04c0.33-0.59,0.65-1.2,0.95-1.83
			c0.29-0.63,0.65-1.33,1.07-2.08c0.33-1.18,0.82-2.52,1.45-4.04c0.63-1.51,1.24-2.94,1.83-4.29c0.92-2.19,1.64-4.08,2.15-5.68
			c0.5-1.6,0.92-3.32,1.26-5.17c-0.08-0.17-0.04-0.42,0.13-0.76c0.17-0.34,0.42-0.55,0.76-0.63h0.13h0.13
			c0.59-0.42,1.7-0.48,3.34-0.19c1.64,0.3,2.88,0.78,3.72,1.45c1.77,1.51,2.61,3.49,2.52,5.93c-0.08,2.44-1.35,5.64-3.79,9.59
			c-0.59,1.35-1.2,2.59-1.83,3.72c-0.63,1.14-0.95,1.92-0.95,2.33c1.35-1.01,2.48-1.87,3.41-2.59c0.92-0.71,1.72-1.28,2.4-1.7
			c0.42-0.42,1.35-1.2,2.78-2.33c1.43-1.14,2.99-2.33,4.67-3.6c1.68-1.26,3.03-2.23,4.04-2.9c0.92-0.67,2.1-1.37,3.53-2.08
			c1.43-0.71,2.31-1.07,2.65-1.07c0.84,0,1.87,0.3,3.09,0.88c1.22,0.59,2.35,1.28,3.41,2.08c1.05,0.8,1.66,1.54,1.83,2.21
			c0,0.34-0.04,0.78-0.13,1.33c-0.08,0.55-0.13,1.03-0.13,1.45c-0.08,1.35-0.11,2.97-0.06,4.86c0.04,1.89,0.06,3.79,0.06,5.68
			s-0.17,3.6-0.5,5.11c0.17,0.25,0.29,0.5,0.38,0.76c-0.08,0.08-0.08,0.34,0,0.76c0.17,0.59,0.36,1.18,0.57,1.77
			c0.21,0.59,0.48,1.24,0.82,1.96c0.33,0.72,0.71,1.62,1.14,2.71c-0.08,1.09-0.69,2.17-1.83,3.22
			C510.3,121.93,509.18,122.58,508.09,122.83z"/>
		<path fill="#E63021" d="M533.84,124.85c-1.85,0-3.22-0.08-4.1-0.25c-0.88-0.17-1.54-0.42-1.96-0.76c-0.42-0.33-0.97-0.8-1.64-1.39
			c-0.34-0.67-0.93-1.53-1.77-2.59c-0.84-1.05-1.43-1.75-1.77-2.08c-0.34-1.26-0.44-2.99-0.32-5.17c0.13-2.19,0.48-4.54,1.07-7.07
			c0.59-2.52,1.3-4.8,2.15-6.82c0.34-0.67,0.76-1.68,1.26-3.03c0-0.42,0.52-1.43,1.58-3.03c1.05-1.6,2.23-3.28,3.53-5.05
			c1.3-1.77,2.38-3.03,3.22-3.79c0.59-0.67,1.49-1.39,2.71-2.15c1.22-0.76,2.29-1.3,3.22-1.64c0.92-0.33,2.19-0.78,3.79-1.33
			c1.6-0.55,3.03-0.82,4.29-0.82c1.18,0,2.44,0.25,3.79,0.76c1.35,0.5,2.48,1.39,3.41,2.65c1.51,1.51,2.48,3.33,2.9,5.43
			c0.42,2.1,0.46,3.91,0.13,5.43c-0.42,1.68-1.26,3.05-2.52,4.1c-1.26,1.05-2.61,1.6-4.04,1.64c-1.43,0.04-2.69-0.52-3.79-1.7
			c-0.34-0.67-0.5-1.24-0.5-1.7c0-0.46,0.17-1.16,0.5-2.08c0.34-1.18,0.5-2.23,0.5-3.16c0-0.92-0.38-1.39-1.14-1.39
			c-1.09,0-1.98,0.32-2.65,0.95c-0.67,0.63-1.68,1.66-3.03,3.09c-0.59,0.67-1.35,1.64-2.27,2.9c-0.93,1.26-1.83,2.63-2.71,4.1
			c-0.88,1.47-1.66,2.97-2.33,4.48c-0.93,2.78-1.6,4.97-2.02,6.56c0,0.34-0.04,0.65-0.13,0.95c-0.08,0.3-0.13,0.61-0.13,0.95
			c0,1.01,0.59,1.81,1.77,2.4c0.92,0.59,1.7,0.86,2.33,0.82c0.63-0.04,1.87-0.48,3.72-1.33c1.34-0.67,2.63-1.56,3.85-2.65
			c1.22-1.09,2.5-2.06,3.85-2.9c0.92-0.59,1.66-1.09,2.21-1.51c0.55-0.42,0.82-0.46,0.82-0.13c0,0.34,0.13,0.5,0.38,0.5
			s0.55-0.17,0.88-0.5c0.5-0.67,1.14-0.95,1.89-0.82s1.45,0.36,2.08,0.69c0.63,0.34,0.95,0.63,0.95,0.88
			c-0.17,0.76,0,1.39,0.5,1.89c0,0.34-0.11,0.78-0.32,1.33c-0.21,0.55-0.48,0.99-0.82,1.33c-0.42,0.59-1.03,1.43-1.83,2.52
			c-0.8,1.09-1.87,2.48-3.22,4.17c-0.34-0.08-0.65,0-0.95,0.25c-0.3,0.25-0.61,0.55-0.95,0.88c-0.67,0.59-1.31,1.03-1.89,1.33
			c-0.59,0.3-1.05,0.44-1.39,0.44c-0.59,0.34-1.03,0.55-1.33,0.63c-0.3,0.08-0.44,0.3-0.44,0.63c-0.84,0.84-2.36,1.41-4.54,1.7
			C538.46,124.71,536.19,124.85,533.84,124.85z"/>
		<path fill="#E63021" d="M592.53,123.34c-2.52,1.43-5.2,2.25-8.02,2.46c-2.82,0.21-5.45-0.17-7.89-1.14
			c-2.44-0.97-4.42-2.42-5.93-4.35c-0.84-1.09-1.64-2.84-2.4-5.24c-0.76-2.4-0.88-5.66-0.38-9.78c0.5-3.87,1.7-7.78,3.6-11.74
			c1.89-3.95,4.23-7.45,7.01-10.48s5.81-5.09,9.09-6.18c1.18-0.42,2.38-0.74,3.6-0.95c1.22-0.21,2.84-0.23,4.86-0.06
			c1.93,0.25,3.66,0.74,5.17,1.45c1.51,0.72,2.61,1.49,3.28,2.33c1.34,1.35,2.23,2.65,2.65,3.91c0.42,1.26,0.59,2.48,0.5,3.66
			c-0.42,2.69-1.62,5.6-3.6,8.71c-1.98,3.11-4.73,5.43-8.27,6.94c-1.43,0.59-3.11,0.97-5.05,1.14c-1.94,0.17-4.59-0.08-7.95-0.76
			c-2.02-0.42-3.34-0.21-3.98,0.63c-0.63,0.84-0.91,2.48-0.82,4.92c0.17,1.51,0.52,2.84,1.07,3.98c0.55,1.14,1.58,1.92,3.09,2.33
			c1.93,0.34,3.32,0.36,4.17,0.06c0.84-0.29,1.89-0.74,3.16-1.33c0.67-0.42,1.33-0.88,1.96-1.39c0.63-0.5,1.26-1.01,1.89-1.51
			c0.63-0.5,1.16-0.88,1.58-1.14c0.42-0.34,0.84-0.55,1.26-0.63c0.42-0.08,0.84-0.13,1.26-0.13c0.92,0.08,1.81,0.59,2.65,1.51
			c0.84,0.93,1.39,1.81,1.64,2.65c0,0.67-0.42,1.62-1.26,2.84c-0.84,1.22-1.96,2.48-3.34,3.79
			C595.75,121.17,594.21,122.33,592.53,123.34z M590.89,95.19c0.59-0.25,1.45-0.84,2.59-1.77c1.14-0.93,2.17-1.91,3.09-2.97
			c0.92-1.05,1.39-1.87,1.39-2.46c0-0.92-0.61-1.72-1.83-2.4c-1.22-0.67-2.8-0.8-4.73-0.38c-0.67,0.17-1.47,0.63-2.4,1.39
			c-0.93,0.76-1.85,1.62-2.78,2.59c-0.93,0.97-1.73,1.89-2.4,2.78c-0.67,0.88-1.14,1.58-1.39,2.08c0.34,0.42,1.01,0.76,2.02,1.01
			c1.01,0.25,2.12,0.38,3.34,0.38C589.01,95.44,590.04,95.36,590.89,95.19z"/>
		<path fill="#E63021" d="M678.23,124.09c-0.67,0.08-1.87-0.29-3.6-1.14c-1.73-0.84-3.09-1.81-4.1-2.9
			c-0.76-1.18-1.37-2.61-1.83-4.29c-0.46-1.68-0.78-3.95-0.95-6.82c-2.44,3.7-4.54,6.48-6.31,8.33c-1.77,1.85-3.34,3.18-4.73,3.98
			c-1.39,0.8-2.76,1.41-4.1,1.83c-0.76,0.25-1.77-0.08-3.03-1.01c-1.26-0.93-2.06-1.68-2.4-2.27c-0.34-0.59-0.69-1.53-1.07-2.84
			c-0.38-1.3-0.53-2.67-0.44-4.1c-0.17-1.77-0.32-3.79-0.44-6.06c-0.13-2.27-0.21-4.52-0.25-6.75c-0.04-2.23-0.02-4.23,0.06-6
			c0.08-1.77,0.25-2.94,0.5-3.53c-0.08-0.33-0.13-0.84-0.13-1.51c-0.25-0.42-0.38-1.37-0.38-2.84c0-1.47,0.08-2.92,0.25-4.35
			c0.17-1.43,0.33-2.31,0.5-2.65c0.17-0.34,0.86-0.78,2.08-1.33c1.22-0.55,2.04-0.86,2.46-0.95c1.26,0.25,1.94,0.76,2.02,1.51
			c0.25,0.17,0.5,0.4,0.76,0.69c0.25,0.3,0.55,0.4,0.88,0.32c0.25,0.17,0.61,1.12,1.07,2.84c0.46,1.73,0.69,3.47,0.69,5.24
			c-0.08,0.84-0.08,1.64,0,2.4c0.08,0.76,0.04,1.43-0.13,2.02c0,0.42,0.04,1.33,0.13,2.71c0.08,1.39,0.17,2.8,0.25,4.23
			c0,1.09-0.04,2.23-0.13,3.41c-0.08,1.18-0.13,2.36-0.13,3.53c0.25,1.68,0.29,2.76,0.13,3.22c-0.17,0.46,0,0.53,0.5,0.19
			c0.5-0.17,1.22-0.95,2.15-2.33c0.92-1.39,2.27-3.6,4.04-6.63c1.35-2.02,2.38-3.76,3.09-5.24c0.71-1.47,1.41-2.63,2.08-3.47
			c0.25-2.02,0.52-3.83,0.82-5.43c0.29-1.6,0.48-2.73,0.57-3.41c1.18-1.18,2.54-2.02,4.1-2.52c1.56-0.5,2.63-0.17,3.22,1.01
			c0.84,0.34,1.68,1.01,2.52,2.02c0.84,1.01,1.18,1.98,1.01,2.9c-0.34,1.18-0.65,2.32-0.95,3.41c-0.3,1.09-0.61,2.23-0.95,3.41
			c-0.34,1.18-0.63,2.82-0.88,4.92c-0.25,2.1-0.4,4.19-0.44,6.25c-0.04,2.06,0.1,3.72,0.44,4.99c0.08,0.76,0.33,1.24,0.76,1.45
			c0.42,0.21,1.26-0.23,2.52-1.33c1.26-1.34,2.48-2.86,3.66-4.54c1.18-1.68,2.17-3.22,2.97-4.61c0.8-1.39,1.2-2.29,1.2-2.71
			c0-0.67,0.17-1.41,0.5-2.21c0.34-0.8,0.76-1.41,1.26-1.83c0.42-0.5,0.67-1.03,0.76-1.58c0.08-0.55,0.25-1.11,0.5-1.7
			c0.08-0.17,0.21-0.42,0.38-0.76c0.17-0.33,0.29-0.67,0.38-1.01c-0.25-0.59-0.06-1.11,0.57-1.58c0.63-0.46,1.03-0.95,1.2-1.45
			c0.17-1.09,0.9-1.93,2.21-2.52c1.3-0.59,2.61-0.67,3.91-0.25c1.3,0.42,2,1.68,2.08,3.79c0,1.01-0.17,2.48-0.5,4.42
			c-0.34,1.94-0.88,4-1.64,6.18c-0.76,2.19-1.77,4.17-3.03,5.93c-0.34,0.67-0.65,1.35-0.95,2.02c-0.3,0.67-0.78,1.56-1.45,2.65
			c-0.67,1.09-1.85,2.69-3.53,4.8c-0.5,0.67-1.07,1.37-1.7,2.08c-0.63,0.72-1.28,1.37-1.96,1.96c-1.43,1.85-3.01,3.6-4.73,5.24
			C680.86,123.15,679.4,124.01,678.23,124.09z"/>
		<path fill="#E63021" d="M715.08,125.74c-2.02,0-3.77-1.07-5.24-3.22c-1.47-2.15-2.38-4.73-2.71-7.76c0.08-0.67,0.19-1.64,0.32-2.9
			c0.13-1.26,0.27-2.57,0.44-3.91c0.34-1.6,0.8-3.66,1.39-6.18c0.59-2.52,1.22-5.07,1.89-7.64c0.67-2.57,1.26-4.8,1.77-6.69
			c0.5-1.89,0.8-3.01,0.88-3.34c0.5-1.18,1.64-1.47,3.41-0.88c1.77,0.59,3.28,1.85,4.54,3.79c0.5,0.67,0.82,1.47,0.95,2.4
			c0.13,0.93,0,2.27-0.38,4.04c-0.38,1.77-1.07,4.38-2.08,7.83c-0.93,3.37-1.62,6.08-2.08,8.14c-0.46,2.06-0.65,4.23-0.57,6.5
			c-0.34,3.87-0.67,6.5-1.01,7.89C716.26,125.17,715.76,125.82,715.08,125.74z M726.69,73.35c-0.34,0.25-0.65,0.36-0.95,0.32
			c-0.3-0.04-0.78-0.27-1.45-0.69c-0.59-0.08-1.33-0.48-2.21-1.2c-0.88-0.71-1.64-1.45-2.27-2.21c-0.63-0.76-0.95-1.22-0.95-1.39
			c-0.08-0.84-0.02-2.19,0.19-4.04c0.21-1.85,0.67-3.6,1.39-5.24c0.71-1.64,1.7-2.5,2.97-2.59c0.34,0,1.07,0.17,2.21,0.5
			c1.14,0.34,2.33,0.76,3.6,1.26c0.67,1.26,1.3,2.9,1.89,4.92c0.59,2.02,0.65,3.98,0.19,5.87
			C730.84,70.77,729.3,72.26,726.69,73.35z"/>
		<path fill="#E63021" d="M739.82,125.99c-0.93-0.17-1.94-0.74-3.03-1.7c-1.09-0.97-2.08-2.06-2.97-3.28
			c-0.88-1.22-1.45-2.25-1.7-3.09c0-0.17-0.21-0.5-0.63-1.01c-0.34-0.25-0.53-1.37-0.57-3.34c-0.04-1.98,0.06-4.18,0.32-6.63
			c0.25-2.44,0.55-4.37,0.88-5.81c0.42-1.35,1.05-3.18,1.89-5.49c0.84-2.31,1.56-4.4,2.15-6.25l3.41-7.32l-5.05-1.39
			c-0.59-0.17-1.07-0.5-1.45-1.01c-0.38-0.5-0.57-0.93-0.57-1.26c0-0.67,0.38-1.64,1.14-2.9c0.76-1.26,1.3-1.89,1.64-1.89
			c0.42,0.08,1.2,0.13,2.33,0.13c1.14,0,2.25-0.04,3.34-0.13c1.09-0.08,1.77-0.17,2.02-0.25c0.33-0.17,0.67-0.4,1.01-0.69
			c0.33-0.29,0.59-0.74,0.76-1.33c0.42-0.92,0.8-1.64,1.14-2.15c0.34-0.5,0.8-1.26,1.39-2.27c0.59-1.09,1.07-2.02,1.45-2.78
			c0.38-0.76,0.99-1.81,1.83-3.16c0.42-0.59,0.88-1.3,1.39-2.15c0.5-0.84,1.14-1.56,1.89-2.15c0.76-0.67,2-1.16,3.72-1.45
			c1.72-0.29,3.22,0.11,4.48,1.2c0.67,0.84,1.05,1.64,1.14,2.4c0.08,0.76-0.25,1.73-1.01,2.9c-0.67,1.43-1.45,2.71-2.33,3.85
			c-0.88,1.14-1.7,2.42-2.46,3.85c-1.35,1.85-1.6,2.9-0.76,3.16c0.84,0.25,3.2,0.08,7.07-0.5c2.44-0.42,4.21-0.17,5.3,0.76
			c1.09,0.93,1.72,2.1,1.89,3.53c0.25,2.02,0.04,3.24-0.63,3.66c-0.67,0.42-2.61,0.63-5.81,0.63c-2.02,0.34-3.75,0.53-5.17,0.57
			c-1.43,0.04-2.48,0.06-3.16,0.06c-1.09,0.08-1.81,0.13-2.15,0.13c-0.34,0-0.84,0.08-1.51,0.25c-0.67,0.17-1.16,0.44-1.45,0.82
			c-0.3,0.38-0.61,0.91-0.95,1.58c-0.34,0.34-0.84,1.22-1.51,2.65c-0.67,1.43-1.51,2.99-2.52,4.67
			c-1.18,3.53-2.17,6.92-2.97,10.16c-0.8,3.24-1.49,6.46-2.08,9.66c-0.25,1.6-0.19,2.76,0.19,3.47c0.38,0.72,1.45,1.16,3.22,1.33
			c0.93,0.08,2.27,0.06,4.04-0.06s3.24-0.36,4.42-0.69c0.93-0.42,1.89-0.86,2.9-1.33c1.01-0.46,1.93-0.95,2.78-1.45
			c0.76-0.42,1.89-1.09,3.41-2.02c0.42-0.67,1.03-0.57,1.83,0.32c0.8,0.88,1.37,1.83,1.7,2.84c0,1.01-0.21,2.21-0.63,3.6
			c-0.42,1.39-1.98,2.84-4.67,4.35c-3.79,2.36-7.57,3.79-11.36,4.29C745,126.37,742.01,126.41,739.82,125.99z"/>
		<path fill="#E63021" d="M813.15,123.84c-2.1,1.01-4.15,1.37-6.12,1.07c-1.98-0.29-3.62-1.35-4.92-3.16
			c-1.31-1.81-1.96-4.48-1.96-8.01c0-0.92,0.06-2.04,0.19-3.34c0.13-1.3,0.36-2.69,0.69-4.17c0.33-1.47,0.76-2.97,1.26-4.48
			c0.25-0.76,0.61-1.51,1.07-2.27c0.46-0.76,0.52-1.14,0.19-1.14c-0.34,0-0.74,0.21-1.2,0.63c-0.46,0.42-0.82,0.76-1.07,1.01
			c-2.1,1.85-4.02,3.77-5.74,5.74c-1.73,1.98-3.24,3.91-4.54,5.81c-1.31,1.89-2.31,3.64-3.03,5.24c-0.72,1.6-1.07,2.95-1.07,4.04
			c0,1.26-0.63,2.15-1.89,2.65s-2.36,0.46-3.28-0.13c-1.6-0.92-3.05-2.35-4.35-4.29c-1.31-1.93-1.83-4.46-1.58-7.57
			c0.25-3.95,0.59-7.49,1.01-10.6c0.42-3.11,1.11-6.5,2.08-10.16c0.97-3.66,2.25-8.14,3.85-13.44c1.09-2.94,2.1-5.74,3.03-8.39
			c0.92-2.65,1.75-4.9,2.46-6.75c0.71-1.85,1.16-2.99,1.33-3.41c0.42-0.42,0.97-1.45,1.64-3.09c0.67-1.64,1.28-3.3,1.83-4.99
			c0.55-1.68,0.82-2.69,0.82-3.03c0-0.67,0.15-1.26,0.44-1.77c0.29-0.5,0.57-0.97,0.82-1.39c0.5-1.18,0.95-2,1.33-2.46
			c0.38-0.46,0.74-0.69,1.07-0.69c0.42,0,1.11,0.21,2.08,0.63c0.97,0.42,1.89,0.95,2.78,1.58c0.88,0.63,1.41,1.28,1.58,1.96
			c0.59,1.18,0.92,2.38,1.01,3.6c0.08,1.22-0.21,2.71-0.88,4.48c-0.67,1.77-1.85,4.21-3.53,7.32c-1.35,2.61-2.57,5.3-3.66,8.08
			c-1.09,2.78-2.15,5.68-3.16,8.71c-0.42,1.26-0.97,2.92-1.64,4.99c-0.67,2.06-1.33,4.17-1.96,6.31
			c-0.63,2.15-1.16,4.06-1.58,5.74c-0.42,1.68-0.63,2.78-0.63,3.28c0,0.59,0.34,0.86,1.01,0.82c0.67-0.04,1.35-0.53,2.02-1.45
			c0.34-0.67,0.88-1.33,1.64-1.96s1.43-1.28,2.02-1.96c0.67-0.84,1.49-1.83,2.46-2.97c0.97-1.14,2.02-2.23,3.16-3.28
			c1.14-1.05,2.19-1.91,3.16-2.59c0.97-0.67,1.79-1.01,2.46-1.01c1.6,0,2.94,0.46,4.04,1.39c1.09,0.93,2.02,2.36,2.78,4.29
			c0.25,0.25,0.5,0.57,0.76,0.95c0.25,0.38,0.42,0.65,0.5,0.82c0.42,0.34,0.63,1.66,0.63,3.98c0,2.32-0.67,5.49-2.02,9.53
			c-0.76,3.11-1.2,5.43-1.33,6.94c-0.13,1.51,0.15,2.27,0.82,2.27c1.77-1.01,3.16-1.81,4.17-2.4c2.44-1.6,4.21-2.1,5.3-1.51
			c1.09,0.59,1.64,1.35,1.64,2.27c0,0.76-0.27,1.64-0.82,2.65c-0.55,1.01-0.82,1.68-0.82,2.02c0,0.08,0,0.3,0,0.63
			c0,0.17-0.55,0.76-1.64,1.77c-1.09,1.01-2.29,2-3.6,2.97C814.94,123.11,813.91,123.67,813.15,123.84z"/>
		<path fill="#E63021" d="M862.5,129.65c-1.09-0.42-1.98-1.07-2.65-1.96c-0.67-0.88-1.05-2.17-1.14-3.85
			c-0.08-1.09-0.04-2.71,0.13-4.86c0.17-2.15,0.46-4.31,0.88-6.5c0-0.17,0.02-0.36,0.06-0.57c0.04-0.21,0.06-0.36,0.06-0.44
			c0.08-0.33,0.17-0.86,0.25-1.58c0.08-0.71,0.19-1.3,0.32-1.77c0.13-0.46,0.19-0.48,0.19-0.06l0.76-3.41
			c0.34-1.51,0.71-3.07,1.14-4.67c0.42-1.6,0.82-3.01,1.2-4.23c0.38-1.22,0.61-1.91,0.69-2.08c0.59-1.93,1.05-3.41,1.39-4.42
			c1.34-4.21,2.63-7.7,3.85-10.48c1.22-2.78,2.29-4.8,3.22-6.06c0.08-0.25,0.21-0.57,0.38-0.95c0.17-0.38,0.29-0.69,0.38-0.95
			c0-0.92,0.06-1.6,0.19-2.02c0.13-0.42,0.32-0.8,0.57-1.14c0.17-0.33,0.42-0.78,0.76-1.33c0.34-0.55,0.71-1.24,1.14-2.08
			l0.5-1.39c0.5-1.09,1.14-2.38,1.89-3.85c0.76-1.47,1.3-2.59,1.64-3.34c0.25-0.76,0.76-1.66,1.51-2.71
			c0.76-1.05,1.6-1.75,2.52-2.08l-0.13-0.13c0.42-0.76,1.22-1.37,2.4-1.83c1.18-0.46,2.15-0.69,2.9-0.69
			c1.18,0,2.08,0.34,2.71,1.01c0.63,0.67,0.95,1.6,0.95,2.78c0,1.26-0.02,2.17-0.06,2.71c-0.04,0.55-0.36,1.16-0.95,1.83h0.13
			c0.17-0.17,0.13,0.08-0.13,0.76c-0.25,0.67-0.46,1.14-0.63,1.39c-0.17,0.42-0.36,0.88-0.57,1.39c-0.21,0.5-0.44,0.88-0.69,1.14
			c-0.25,0.34-0.93,1.49-2.02,3.47c-1.09,1.98-2.32,4.29-3.66,6.94c-1.35,2.65-2.63,5.22-3.85,7.7c-1.22,2.48-2.08,4.4-2.59,5.74
			l-0.63,1.89c-0.08,0.34-0.13,0.59-0.13,0.76c-0.25,0.59-0.5,1.18-0.76,1.77c-0.25,0.59-0.5,1.09-0.76,1.51l-2.02,7.83l-0.5,2.65
			l-1.14,2.9l-0.76,2.4c-0.17,0.5-0.3,1.05-0.38,1.64c-0.08,0.59-0.25,1.01-0.5,1.26c0,0.08-0.02,0.19-0.06,0.32
			c-0.04,0.13-0.06,0.23-0.06,0.32c-0.34,1.35-0.91,3.24-1.7,5.68c-0.8,2.44-1.28,5.13-1.45,8.08c0,0.08-0.02,0.17-0.06,0.25
			c-0.04,0.08-0.06,0.17-0.06,0.25c-0.25,1.77-0.78,3.13-1.58,4.1C864.79,129.67,863.76,129.98,862.5,129.65z"/>
		<path fill="#E63021" d="M896.45,127c-1.09,0.08-1.98-0.02-2.65-0.32c-0.67-0.3-1.51-0.74-2.52-1.33c-1.85-1.43-3.39-3.2-4.61-5.3
			c-1.22-2.1-1.79-3.87-1.7-5.3c0.17-0.76,0.13-1.72-0.13-2.9c-0.5-0.42-0.67-0.69-0.5-0.82c0.17-0.13,0.29-0.36,0.38-0.69
			c0.67-0.17,0.76-0.63,0.25-1.39c-0.25-0.67-0.11-2.21,0.44-4.61c0.55-2.4,1.28-4.65,2.21-6.75c0.42-0.92,1.03-2.15,1.83-3.66
			c0.8-1.51,1.7-3.05,2.71-4.61c1.01-1.56,1.93-2.8,2.78-3.72c1.85-2.1,3.51-3.83,4.99-5.17c1.47-1.34,3.13-2.35,4.99-3.03
			c1.68-0.67,3.39-0.97,5.11-0.88c1.72,0.08,3.26,0.67,4.61,1.77c2.02,0.59,3.83,1.5,5.43,2.71c1.6,1.22,2.69,2.92,3.28,5.11
			c0.67,2.44,0.9,5.32,0.69,8.65c-0.21,3.32-1.66,7.59-4.35,12.81c-1.6,3.28-3.18,5.93-4.73,7.95c-1.56,2.02-3.43,3.96-5.62,5.81
			c-1.6,1.35-3.66,2.52-6.18,3.53S898.39,126.57,896.45,127z M907.44,107.94c1.09-1.51,1.96-2.99,2.59-4.42
			c0.63-1.43,1.24-3.41,1.83-5.93c0.25-0.92,0.4-2.06,0.44-3.41c0.04-1.34,0-2.59-0.13-3.72c-0.13-1.14-0.44-1.75-0.95-1.83
			c-1.09-0.42-2.21-0.44-3.34-0.06c-1.14,0.38-2.46,1.41-3.98,3.09c-1.35,1.51-2.42,2.92-3.22,4.23c-0.8,1.31-1.51,2.86-2.15,4.67
			c-0.63,1.81-1.33,4.15-2.08,7c-0.67,2.78-0.69,5.01-0.06,6.69c0.63,1.68,1.87,2.15,3.72,1.39
			C901.96,114.88,904.41,112.31,907.44,107.94z"/>
		<path fill="#E63021" d="M939.75,119.17c-0.59-0.5-1.37-2.02-2.33-4.54c-0.97-2.52-1.89-5.47-2.78-8.83
			c-0.88-3.37-1.58-6.48-2.08-9.34c-0.34-1.68-0.69-3.11-1.07-4.29c-0.38-1.18-0.69-2.15-0.95-2.9c-0.42-1.51-0.27-3.11,0.44-4.8
			c0.71-1.68,1.58-2.82,2.59-3.41c0.42-0.25,1.2-0.44,2.33-0.57c1.14-0.13,1.87-0.15,2.21-0.06c1.01,0.34,1.93,1.87,2.78,4.61
			c0.84,2.74,1.6,6.33,2.27,10.79c0.33,2.61,0.61,4.52,0.82,5.74c0.21,1.22,0.32,2,0.32,2.33c0.34,0.67,0.57,1.5,0.69,2.46
			c0.13,0.97,0.52,1.12,1.2,0.44c0.33-0.34,0.86-0.92,1.58-1.77c0.71-0.84,1.58-1.93,2.59-3.28c1.77-2.35,3.18-4.31,4.23-5.87
			c1.05-1.56,2.25-3.18,3.6-4.86c0.59-0.84,1.39-1.77,2.4-2.78s2.02-1.96,3.03-2.84c1.01-0.88,1.85-1.41,2.52-1.58
			c2.02-0.34,3.26,0.4,3.72,2.21c0.46,1.81-0.15,3.89-1.83,6.25c-0.67,1.01-1.2,1.96-1.58,2.84c-0.38,0.88-0.74,1.5-1.07,1.83
			c-0.67,1.35-1.73,3.05-3.16,5.11c-1.43,2.06-2.82,3.96-4.17,5.68c-1.35,1.73-2.27,2.84-2.78,3.34
			c-0.34,0.34-1.07,0.97-2.21,1.89c-1.14,0.93-2.21,2.1-3.22,3.53c-2.02,1.94-3.96,3.11-5.81,3.53
			C942.19,120.48,940.76,120.18,939.75,119.17z"/>
		<path fill="#E63021" d="M995.91,123.34c-2.52,1.43-5.2,2.25-8.02,2.46c-2.82,0.21-5.45-0.17-7.89-1.14
			c-2.44-0.97-4.42-2.42-5.93-4.35c-0.84-1.09-1.64-2.84-2.4-5.24c-0.76-2.4-0.88-5.66-0.38-9.78c0.5-3.87,1.7-7.78,3.6-11.74
			c1.89-3.95,4.23-7.45,7.01-10.48s5.81-5.09,9.09-6.18c1.18-0.42,2.38-0.74,3.6-0.95c1.22-0.21,2.84-0.23,4.86-0.06
			c1.93,0.25,3.66,0.74,5.17,1.45c1.51,0.72,2.61,1.49,3.28,2.33c1.34,1.35,2.23,2.65,2.65,3.91c0.42,1.26,0.59,2.48,0.5,3.66
			c-0.42,2.69-1.62,5.6-3.6,8.71c-1.98,3.11-4.73,5.43-8.27,6.94c-1.43,0.59-3.11,0.97-5.05,1.14c-1.94,0.17-4.59-0.08-7.95-0.76
			c-2.02-0.42-3.34-0.21-3.98,0.63c-0.63,0.84-0.91,2.48-0.82,4.92c0.17,1.51,0.52,2.84,1.07,3.98c0.55,1.14,1.58,1.92,3.09,2.33
			c1.93,0.34,3.32,0.36,4.17,0.06c0.84-0.29,1.89-0.74,3.16-1.33c0.67-0.42,1.33-0.88,1.96-1.39c0.63-0.5,1.26-1.01,1.89-1.51
			c0.63-0.5,1.16-0.88,1.58-1.14c0.42-0.34,0.84-0.55,1.26-0.63c0.42-0.08,0.84-0.13,1.26-0.13c0.92,0.08,1.81,0.59,2.65,1.51
			c0.84,0.93,1.39,1.81,1.64,2.65c0,0.67-0.42,1.62-1.26,2.84c-0.84,1.22-1.96,2.48-3.34,3.79
			C999.13,121.17,997.6,122.33,995.91,123.34z M994.27,95.19c0.59-0.25,1.45-0.84,2.59-1.77c1.14-0.93,2.17-1.91,3.09-2.97
			c0.92-1.05,1.39-1.87,1.39-2.46c0-0.92-0.61-1.72-1.83-2.4c-1.22-0.67-2.8-0.8-4.73-0.38c-0.67,0.17-1.47,0.63-2.4,1.39
			c-0.93,0.76-1.85,1.62-2.78,2.59c-0.93,0.97-1.73,1.89-2.4,2.78c-0.67,0.88-1.14,1.58-1.39,2.08c0.34,0.42,1.01,0.76,2.02,1.01
			c1.01,0.25,2.12,0.38,3.34,0.38C992.4,95.44,993.43,95.36,994.27,95.19z"/>
		<path fill="#E63021" d="M1050.44,136.84c-1.09,0.08-2.19-0.59-3.28-2.02c-1.09-1.43-2-3.33-2.71-5.68
			c-0.72-2.36-1.07-4.92-1.07-7.7c-0.34-3.45-0.04-7.66,0.88-12.62c0.93-4.96,2.31-10.77,4.17-17.42c0.67-2.27,1.64-5.05,2.9-8.33
			c1.26-3.28,2.59-6.52,3.98-9.72c1.39-3.2,2.63-5.91,3.72-8.14c1.09-2.23,1.77-3.47,2.02-3.72c0.5,0.17,0.76-0.21,0.76-1.14
			c0-0.17,0.34-0.8,1.01-1.89c0.67-1.09,1.3-2.27,1.89-3.53c1.09-1.6,2.5-3.3,4.23-5.11c1.72-1.81,3.49-3.47,5.3-4.99
			c1.81-1.51,3.38-2.52,4.73-3.03c1.26-0.5,2.53-0.76,3.79-0.76c1.6,0,3.34,0.53,5.24,1.58c1.89,1.05,3.53,2.36,4.92,3.91
			c1.39,1.56,2.08,3.14,2.08,4.73c0,1.35-0.29,2.65-0.88,3.91c-0.25,1.26-0.76,2.67-1.52,4.23c-0.76,1.56-1.49,2.99-2.21,4.29
			c-0.71,1.31-1.28,2.25-1.7,2.84c-2.44,1.85-4.33,2.57-5.68,2.15c-1.35-0.42-1.81-0.92-1.39-1.51c0-0.33,0.13-1.07,0.38-2.21
			c0.25-1.14,0.42-2,0.51-2.59c0-0.17,0.19-0.67,0.57-1.51c0.38-0.84,0.57-1.68,0.57-2.52c0.76-3.03,1.12-5.01,1.07-5.93
			c-0.04-0.92-0.44-1.39-1.2-1.39c-0.42-0.08-0.93,0-1.52,0.25c-0.59,0.25-1.07,0.57-1.45,0.95c-0.38,0.38-0.57,0.78-0.57,1.2
			c0,0.25,0,0.42,0,0.5c-0.25-0.08-0.99,0.61-2.21,2.08c-1.22,1.47-2.59,3.24-4.1,5.3c-1.52,2.06-2.78,3.93-3.79,5.62
			c-0.67,1.43-1.41,3.05-2.21,4.86c-0.8,1.81-1.91,4.57-3.34,8.27l-1.01,3.03l2.02,0.25c0.67,0.08,1.53,0.02,2.59-0.19
			c1.05-0.21,2.25-0.44,3.6-0.69c2.86-0.42,4.82-0.15,5.87,0.82c1.05,0.97,1.87,2.13,2.46,3.47c0.93,2.02,0.42,3.39-1.51,4.1
			c-1.94,0.72-6.1,1.24-12.5,1.58c-1.35-0.17-2.5-0.23-3.47-0.19c-0.97,0.04-1.62,0.23-1.96,0.57c-0.34,0.17-0.8,1.07-1.39,2.71
			c-0.59,1.64-1.2,3.58-1.83,5.81c-0.63,2.23-1.12,4.35-1.45,6.37c-0.67,2.61-1.09,5.41-1.26,8.39c-0.17,2.99-0.17,5.76,0,8.33
			c0.17,2.57,0.42,4.52,0.76,5.87c0.5,2.02,0.08,3.51-1.26,4.48C1052.62,135.73,1051.45,136.42,1050.44,136.84z"/>
		<path fill="#E63021" d="M1094.11,124.85c-1.77,0.34-3.09,0.23-3.98-0.32c-0.88-0.55-1.79-1.24-2.71-2.08
			c-1.35-0.67-2.57-1.62-3.66-2.84c-1.09-1.22-1.94-2.5-2.52-3.85c-0.59-1.34-0.84-2.4-0.76-3.16c0.25-2.94,0.95-6.14,2.08-9.59
			c1.14-3.45,2.61-6.82,4.42-10.1c1.81-3.28,3.87-6.21,6.18-8.77c2.31-2.57,4.82-4.44,7.51-5.62c1.68-0.67,3.49-0.92,5.43-0.76
			c1.93,0.17,3.24,0.97,3.91,2.4c1.26,2.44,0.97,4-0.88,4.67c-0.25,0-0.55,0.11-0.88,0.32c-0.34,0.21-0.5,0.49-0.5,0.82
			c0.33,0.17,1.26,0.19,2.78,0.06c1.51-0.13,3.05-0.38,4.61-0.76c1.56-0.38,2.59-0.78,3.09-1.2c0.5-0.25,0.88-0.38,1.14-0.38
			c0.25,0,0.88,0.08,1.89,0.25c1.43,0.42,2.15,0.93,2.15,1.51c0,0.34,0.13,0.86,0.38,1.58c0.25,0.72,0.55,1.07,0.88,1.07
			c0.59,0.08,0.74,0.67,0.44,1.77c-0.3,1.09-1.28,2.23-2.97,3.41c-1.6,1.01-2.59,1.66-2.97,1.96c-0.38,0.3-0.44,0.91-0.19,1.83
			c0.67,1.6,0.63,3.53-0.13,5.81c-0.76,2.27-2.02,4.63-3.79,7.07c-1.77,2.44-3.85,4.73-6.25,6.88c-2.4,2.15-4.88,3.96-7.45,5.43
			C1098.8,123.74,1096.38,124.6,1094.11,124.85z M1094.49,114.25c0.33,0,0.92-0.19,1.77-0.57c0.84-0.38,1.51-0.69,2.02-0.95
			c0.34-0.33,0.78-0.74,1.33-1.2c0.55-0.46,0.99-0.74,1.33-0.82c0.33,0,0.55-0.15,0.63-0.44c0.08-0.29,0.38-0.92,0.88-1.89
			c0.5-0.97,1.51-2.42,3.03-4.35c1.68-1.85,2.78-3.34,3.28-4.48s0.55-2.38,0.13-3.72c-0.08-0.33-0.32-0.55-0.69-0.63
			c-0.38-0.08-0.86-0.29-1.45-0.63c-0.84,0-1.41,0.19-1.7,0.57c-0.3,0.38-0.91,0.19-1.83-0.57l-2.02-2.52l-2.15,2.15
			c-1.35,1.35-2.55,3.03-3.6,5.05c-1.05,2.02-1.87,4.08-2.46,6.18c-0.59,2.1-0.97,3.96-1.14,5.55c-0.08,1.26,0.13,2.1,0.63,2.52
			C1092.97,113.91,1093.64,114.17,1094.49,114.25z"/>
		<path fill="#E63021" d="M1131.59,123.97c-0.59,0-1.37-0.42-2.33-1.26c-0.97-0.84-1.54-1.6-1.7-2.27c-0.25-0.67-0.23-1.66,0.06-2.97
			c0.29-1.3,0.74-2.84,1.33-4.61c0.67-2.78,1.14-4.8,1.39-6.06c0.25-1.26,0.5-2.36,0.76-3.28c0.25-0.92,0.59-2.27,1.01-4.04
			c0.5-1.09,0.9-2.17,1.2-3.22c0.29-1.05,0.63-2.12,1.01-3.22c0.38-1.09,0.82-2.19,1.33-3.28c0.59-2.19,1.33-4.27,2.21-6.25
			c0.88-1.98,1.75-3.64,2.59-4.99c0.17-0.25,0.55-0.71,1.14-1.39c0.59-0.67,1.05-1.01,1.39-1.01c0.67-0.67,1.6-0.9,2.78-0.69
			c1.18,0.21,2.19,0.65,3.03,1.33c1.01,1.09,1.58,2.38,1.7,3.85c0.13,1.47-0.49,3.51-1.83,6.12c-1.01,2.61-1.96,4.65-2.84,6.12
			c-0.88,1.47-1.75,3.18-2.59,5.11c0.92-1.34,2.06-2.73,3.41-4.17c1.34-1.43,2.4-2.57,3.16-3.41c1.09-1.18,2.12-2.12,3.09-2.84
			c0.97-0.71,2.29-1.62,3.98-2.71c1.43-1.01,2.88-1.93,4.35-2.78c1.47-0.84,3.26-1.09,5.36-0.76c0.84-0.08,1.75,0.34,2.71,1.26
			c0.97,0.93,1.72,2.13,2.27,3.6c0.55,1.47,0.52,3.05-0.06,4.73c-1.94-0.42-3.66-0.36-5.17,0.19c-1.51,0.55-2.8,1.2-3.85,1.96
			c-1.05,0.76-1.87,1.35-2.46,1.77c-0.84,0.5-1.81,1.16-2.9,1.96c-1.09,0.8-2.27,1.68-3.53,2.65c-1.26,0.97-2.61,2.04-4.04,3.22
			c-2.02,1.68-3.53,3.16-4.54,4.42c-1.01,1.26-1.81,2.61-2.4,4.04c-0.5,1.26-1.14,2.78-1.89,4.54c-0.76,1.77-1.47,3.34-2.15,4.73
			c-0.67,1.39-1.22,2.25-1.64,2.59c-0.42,0.84-1.28,1.31-2.59,1.39C1133,124.43,1132.1,124.31,1131.59,123.97z"/>
		<path fill="#E63021" d="M1212.24,124.73c-3.28-1.35-5.55-3.53-6.82-6.56c-1.26-3.03-1.6-7.07-1.01-12.12
			c0.17-2.61,0.08-4.35-0.25-5.24c-0.34-0.88-0.97-1.75-1.89-2.59c-0.25-0.33-0.84-0.9-1.77-1.7c-0.93-0.8-1.35-1.41-1.26-1.83
			c-0.08-0.59,0.04-1.33,0.38-2.21c0.33-0.88,0.63-1.37,0.88-1.45c0.59-0.25,1.2-0.55,1.83-0.88c0.63-0.33,1.11-0.42,1.45-0.25
			c0.33,0,0.86,0.21,1.58,0.63c0.71,0.42,1.07,0.8,1.07,1.14c0.33,0.59,0.86,0.34,1.58-0.76c0.71-1.09,1.49-2.48,2.34-4.17
			c0.84-1.34,1.89-2.61,3.16-3.79c1.26-1.18,2.54-2.25,3.85-3.22c1.3-0.97,2.42-1.7,3.34-2.21c0.42-0.17,1.24-0.42,2.46-0.76
			c1.22-0.33,2.5-0.61,3.85-0.82c1.34-0.21,2.35-0.27,3.03-0.19c1.51,0.08,3.11,0.72,4.8,1.89c1.68,1.18,2.99,2.27,3.91,3.28
			c1.09,0.76,1.83,1.92,2.21,3.47c0.38,1.56,0.52,3.18,0.44,4.86c-0.08,1.68-0.42,3.11-1.01,4.29c-0.25,0.84-1.14,2.02-2.65,3.53
			s-3.18,2.97-4.99,4.35c-1.81,1.39-3.34,2.33-4.61,2.84c-1.09,0.25-2.4,0.44-3.91,0.57c-1.51,0.13-2.92,0.13-4.23,0
			c-1.31-0.13-2.21-0.32-2.71-0.57c-0.59-0.34-1.07-0.23-1.45,0.32c-0.38,0.55-0.69,2-0.95,4.35c-0.08,0.93-0.06,1.73,0.06,2.4
			c0.13,0.67,0.27,1.18,0.44,1.51c0.59,1.01,1.18,1.75,1.77,2.21c0.59,0.46,1.68,0.61,3.28,0.44c1.6-0.17,3.22-1.16,4.86-2.97
			c1.64-1.81,3.13-3.26,4.48-4.35c0.33-0.59,1.07-0.99,2.21-1.2c1.14-0.21,2.5-0.1,4.1,0.32c0.92,0.59,1.37,1.51,1.33,2.78
			c-0.04,1.26-0.74,3.11-2.08,5.55c-0.25,0.59-0.95,1.45-2.08,2.59c-1.14,1.14-2.36,2.27-3.66,3.41
			c-1.31,1.14-2.38,1.96-3.22,2.46c-2.52,1.35-5.01,1.98-7.45,1.89C1216.49,125.9,1214.26,125.48,1212.24,124.73z M1221.58,96.33
			c1.26-0.33,2.33-0.67,3.22-1.01c0.88-0.33,1.75-0.88,2.59-1.64c0.84-0.76,1.81-1.89,2.9-3.41c0.33-0.92,0.52-1.72,0.57-2.4
			c0.04-0.67-0.02-1.09-0.19-1.26c-0.67-0.67-1.41-0.9-2.21-0.69c-0.8,0.21-1.66,0.65-2.59,1.33c-0.59,0.25-1.41,0.78-2.46,1.58
			c-1.05,0.8-2.06,1.68-3.03,2.65c-0.97,0.97-1.73,1.85-2.27,2.65c-0.55,0.8-0.65,1.28-0.32,1.45c-0.17,0.34,0.32,0.55,1.45,0.63
			C1220.39,96.28,1221.16,96.33,1221.58,96.33z"/>
		<path fill="#E63021" d="M1289.24,122.83c-1.85-0.17-3.39-0.57-4.61-1.2c-1.22-0.63-2.21-1.91-2.97-3.85
			c-0.34-1.34-0.49-2.75-0.44-4.23c0.04-1.47,0.15-2.9,0.32-4.29c0.17-1.39,0.25-2.59,0.25-3.6c0-0.17,0-0.5,0-1.01
			c0-0.5,0-0.97,0-1.39c-0.17-1.26-0.49-2.04-0.95-2.33c-0.46-0.29-1.24-0.23-2.33,0.19c-1.77,0.84-3.68,1.96-5.74,3.34
			c-2.06,1.39-4.21,2.99-6.44,4.8c-2.23,1.81-4.52,3.72-6.88,5.74c-1.85,2.02-3.22,3.66-4.1,4.92c-0.88,1.26-1.79,1.89-2.71,1.89
			c-0.67,0.34-1.39,0.25-2.15-0.25c-0.76-0.5-1.56-1.09-2.4-1.77c-0.59-0.67-1.28-1.53-2.08-2.59c-0.8-1.05-1.28-1.75-1.45-2.08
			c0-1.34,0.1-2.57,0.32-3.66c0.21-1.09,0.55-2.23,1.01-3.41c0.46-1.18,1.03-2.52,1.7-4.04c0.33-0.59,0.65-1.2,0.95-1.83
			c0.29-0.63,0.65-1.33,1.07-2.08c0.33-1.18,0.82-2.52,1.45-4.04s1.24-2.94,1.83-4.29c0.92-2.19,1.64-4.08,2.15-5.68
			c0.5-1.6,0.93-3.32,1.26-5.17c-0.08-0.17-0.04-0.42,0.13-0.76c0.17-0.34,0.42-0.55,0.76-0.63h0.13h0.13
			c0.59-0.42,1.7-0.48,3.34-0.19c1.64,0.3,2.88,0.78,3.72,1.45c1.77,1.51,2.61,3.49,2.52,5.93c-0.08,2.44-1.35,5.64-3.79,9.59
			c-0.59,1.35-1.2,2.59-1.83,3.72c-0.63,1.14-0.95,1.92-0.95,2.33c1.34-1.01,2.48-1.87,3.41-2.59c0.92-0.71,1.72-1.28,2.4-1.7
			c0.42-0.42,1.35-1.2,2.78-2.33c1.43-1.14,2.99-2.33,4.67-3.6c1.68-1.26,3.03-2.23,4.04-2.9c0.92-0.67,2.1-1.37,3.53-2.08
			c1.43-0.71,2.31-1.07,2.65-1.07c0.84,0,1.87,0.3,3.09,0.88c1.22,0.59,2.35,1.28,3.41,2.08c1.05,0.8,1.66,1.54,1.83,2.21
			c0,0.34-0.04,0.78-0.13,1.33c-0.08,0.55-0.13,1.03-0.13,1.45c-0.08,1.35-0.11,2.97-0.06,4.86c0.04,1.89,0.06,3.79,0.06,5.68
			s-0.17,3.6-0.5,5.11c0.17,0.25,0.29,0.5,0.38,0.76c-0.08,0.08-0.08,0.34,0,0.76c0.17,0.59,0.36,1.18,0.57,1.77
			c0.21,0.59,0.48,1.24,0.82,1.96c0.34,0.72,0.71,1.62,1.14,2.71c-0.08,1.09-0.69,2.17-1.83,3.22
			C1291.45,121.93,1290.33,122.58,1289.24,122.83z"/>
		<path fill="#E63021" d="M1340.1,125.74c-1.26,0.08-2.42,0.13-3.47,0.13c-1.05,0-1.87-0.17-2.46-0.5c-1.51-1.26-2.5-2.27-2.97-3.03
			c-0.46-0.76-0.69-1.6-0.69-2.52c0.08-1.18,0.13-2.38,0.13-3.6c0-1.22,0-2.17,0-2.84c-0.34-0.34-1.01,0.04-2.02,1.14
			c-1.01,1.09-2.19,2.15-3.53,3.16c-2.61,2.95-4.92,5.07-6.94,6.37c-2.02,1.31-3.87,2.06-5.55,2.27
			c-1.68,0.21-3.37,0.23-5.05,0.06c-1.51-0.17-2.84-0.92-3.98-2.27c-1.14-1.35-1.98-2.99-2.52-4.92
			c-0.55-1.93-0.74-3.83-0.57-5.68c0.42-3.45,1.18-6.58,2.27-9.4c1.09-2.82,2.73-5.78,4.92-8.9c1.01-1.34,2.38-2.82,4.1-4.42
			c1.72-1.6,3.6-3.09,5.62-4.48s3.83-2.38,5.43-2.97c2.44-1.09,4.48-1.6,6.12-1.51c1.64,0.08,3.26,0.34,4.86,0.76
			c1.18,0.59,2.12,0.88,2.84,0.88c0.71,0,1.24-0.42,1.58-1.26c0.5-0.67,0.88-1.51,1.14-2.52c0.25-1.01,0.67-1.98,1.26-2.9
			l2.78-8.2c0.92-2.27,2.02-4.88,3.28-7.83c1.26-2.95,2.69-6.23,4.29-9.85c1.93-3.28,3.6-5,4.99-5.17
			c1.39-0.17,2.84,0.59,4.35,2.27c1.01,1.01,1.58,2.25,1.7,3.72c0.13,1.47-0.27,3.18-1.2,5.11c-0.59,0.93-1.22,2.08-1.89,3.47
			c-0.67,1.39-1.47,3.01-2.4,4.86c-0.93,2.19-1.87,4.38-2.84,6.56c-0.97,2.19-1.96,4.59-2.97,7.19c-0.34,1.35-0.78,2.9-1.33,4.67
			c-0.55,1.77-0.99,3.37-1.33,4.8c-0.25,1.35-0.53,2.59-0.82,3.72c-0.3,1.14-0.61,1.7-0.95,1.7c-0.67,0.59-1.31,1.83-1.89,3.72
			c-0.59,1.89-1.07,3.89-1.45,6c-0.38,2.1-0.69,3.83-0.95,5.17c-0.17,1.01-0.3,2.42-0.38,4.23c-0.08,1.81-0.13,3.53-0.13,5.17
			c0,1.64,0,2.76,0,3.34c0,1.6-0.11,2.71-0.32,3.34C1340.96,125.42,1340.61,125.74,1340.1,125.74z M1311.58,115.76
			c1.93,0,3.76-0.82,5.49-2.46c1.72-1.64,3.64-3.39,5.74-5.24c1.26-1.26,2.57-2.67,3.91-4.23c1.35-1.56,2.59-3.09,3.72-4.61
			s2.04-2.82,2.71-3.91c0.67-1.09,1.01-1.81,1.01-2.15c0-0.42-0.32-0.8-0.95-1.14c-0.63-0.34-1.37-0.61-2.21-0.82
			c-0.84-0.21-1.6-0.23-2.27-0.06c-2.02,0.59-3.64,1.47-4.86,2.65c-1.22,1.18-2.97,3.03-5.24,5.55c-2.27,2.78-4.08,5.43-5.43,7.95
			c-1.35,2.52-2.17,4.57-2.46,6.12C1310.46,114.99,1310.73,115.76,1311.58,115.76z"/>
		<path fill="#E63021" d="M1363.2,124.98c-1.09,0-1.96-0.21-2.59-0.63c-0.63-0.42-1.41-1.01-2.33-1.77c-1.6-1.68-2.88-3.49-3.85-5.43
			c-0.97-1.93-1.33-3.62-1.07-5.05c0.25-0.67,0.34-1.64,0.25-2.9c-0.42-0.42-0.55-0.69-0.38-0.82c0.17-0.13,0.33-0.36,0.5-0.69
			c0.5,0,0.67-0.46,0.5-1.39c-0.17-0.67,0.1-2.12,0.82-4.35c0.71-2.23,1.7-4.35,2.97-6.37c0.5-0.84,1.26-1.96,2.27-3.34
			c1.01-1.39,2.12-2.78,3.34-4.17c1.22-1.39,2.33-2.5,3.34-3.35c2.1-1.77,4.06-3.2,5.87-4.29c1.81-1.09,3.64-1.85,5.49-2.27
			c1.85-0.42,3.76-0.63,5.74-0.63c1.98,0,3.6,0.67,4.86,2.02c1.93,0.84,3.3,1.98,4.1,3.41c0.8,1.43,1.33,3.28,1.58,5.55
			c0.25,2.52,0,5.62-0.76,9.28c-0.76,3.66-2.82,7.89-6.19,12.68c-2.1,3.03-4.17,5.39-6.18,7.07c-2.02,1.68-4.25,3.24-6.69,4.67
			c-1.77,1.18-3.66,1.89-5.68,2.15C1367.11,124.6,1365.13,124.81,1363.2,124.98z M1376.07,109.58c1.85-1.6,3.17-3.36,3.98-5.3
			c0.8-1.93,1.66-4.21,2.59-6.82c0.33-0.5,0.57-1.34,0.69-2.52c0.13-1.18,0.15-2.33,0.06-3.47c-0.08-1.14-0.38-1.79-0.88-1.96
			c-0.76-0.59-1.51-0.74-2.27-0.44c-0.76,0.3-1.73,0.86-2.9,1.7c-2.52,2.1-4.86,4.52-7,7.26c-2.15,2.74-3.64,6.08-4.48,10.03
			c-0.25,2.1-0.02,3.68,0.69,4.73c0.71,1.05,1.89,1.35,3.53,0.88C1371.72,113.22,1373.72,111.85,1376.07,109.58z"/>
		<path fill="#E63021" d="M1432.75,127.38c-0.93,0.33-1.96,0.52-3.09,0.57c-1.14,0.04-2.42-0.49-3.85-1.58
			c-0.84-0.92-1.41-1.89-1.7-2.9c-0.3-1.01-0.44-2.57-0.44-4.67c0.17-1.26,0.5-3.09,1.01-5.49s1.07-4.92,1.7-7.57
			s1.22-5.05,1.77-7.19c0.55-2.15,0.99-3.6,1.33-4.35c0.59-2.02,0.71-3.28,0.38-3.79c-0.34-0.5-1.35-0.8-3.03-0.88
			c-1.94-0.08-3.96,0.84-6.06,2.78c-2.1,1.94-4.5,5.01-7.19,9.21c-2.02,3.11-3.24,5.66-3.66,7.64c-0.42,1.98-0.46,3.34-0.13,4.1
			c0.17,0.34,0.48,0.53,0.95,0.57c0.46,0.04,1.05-0.06,1.77-0.32c0.71-0.25,1.49-0.59,2.33-1.01c0.59-0.33,1.33-0.69,2.21-1.07
			s1.75-0.74,2.59-1.07c0.5,0,0.86,0.3,1.07,0.88c0.21,0.59,0.32,1.31,0.32,2.15c0,0.34,0.1,0.97,0.32,1.89
			c0.21,0.93,0.61,1.56,1.2,1.89c0.33,0.34-0.36,1.03-2.08,2.08c-1.73,1.05-3.93,2.33-6.63,3.85c-2.52,0.59-4.4,0.88-5.62,0.88
			c-1.22,0-2.55-0.55-3.98-1.64c-2.36-1.43-3.85-4.08-4.48-7.95c-0.63-3.87-0.15-8.16,1.45-12.88c1.6-3.79,3.39-7.05,5.36-9.78
			c1.98-2.73,4.06-5.24,6.25-7.51c0.33-0.33,1.39-1.01,3.16-2.02c1.77-1.01,3.58-1.81,5.43-2.4c2.1-0.67,3.89-0.95,5.36-0.82
			c1.47,0.13,2.88,0.65,4.23,1.58c1.51,0.34,2.54,0.3,3.09-0.13c0.55-0.42,1.2-1.6,1.96-3.53c1.51-4.21,3.11-8.48,4.8-12.81
			c1.68-4.33,3.45-8.73,5.3-13.19c0.84-1.6,1.37-2.84,1.58-3.72c0.21-0.88,0.48-1.49,0.82-1.83l3.53-1.14
			c0.92-0.25,2,0.17,3.22,1.26c1.22,1.09,2,2.15,2.33,3.16c0,0.76-0.34,2.42-1.01,4.99c-0.67,2.57-1.77,5.62-3.28,9.15
			c-1.35,3.11-2.67,6.25-3.98,9.4c-1.31,3.16-2.55,6.5-3.72,10.04c-0.93,2.61-1.77,4.71-2.52,6.31c-0.76,1.6-1.26,2.99-1.51,4.17
			c-0.5,2.19-1.12,4.15-1.83,5.87c-0.72,1.73-1.2,2.92-1.45,3.6c-1.09,3.2-1.94,5.83-2.52,7.89c-0.59,2.06-0.97,3.83-1.14,5.3
			c-0.17,1.47-0.21,2.9-0.13,4.29c0.08,1.39,0.25,2.97,0.5,4.73c0,0.34-0.23,0.82-0.69,1.45
			C1433.86,126.43,1433.33,126.95,1432.75,127.38z"/>
		<path fill="#E63021" d="M1463.04,124.85c-1.77,0.34-3.09,0.23-3.98-0.32c-0.88-0.55-1.79-1.24-2.71-2.08
			c-1.35-0.67-2.57-1.62-3.66-2.84c-1.09-1.22-1.94-2.5-2.52-3.85c-0.59-1.34-0.84-2.4-0.76-3.16c0.25-2.94,0.95-6.14,2.08-9.59
			c1.14-3.45,2.61-6.82,4.42-10.1c1.81-3.28,3.87-6.21,6.18-8.77c2.31-2.57,4.82-4.44,7.51-5.62c1.68-0.67,3.49-0.92,5.43-0.76
			c1.93,0.17,3.24,0.97,3.91,2.4c1.26,2.44,0.97,4-0.88,4.67c-0.25,0-0.55,0.11-0.88,0.32c-0.34,0.21-0.5,0.49-0.5,0.82
			c0.33,0.17,1.26,0.19,2.78,0.06c1.51-0.13,3.05-0.38,4.61-0.76c1.56-0.38,2.59-0.78,3.09-1.2c0.5-0.25,0.88-0.38,1.14-0.38
			c0.25,0,0.88,0.08,1.89,0.25c1.43,0.42,2.15,0.93,2.15,1.51c0,0.34,0.13,0.86,0.38,1.58c0.25,0.72,0.55,1.07,0.88,1.07
			c0.59,0.08,0.74,0.67,0.44,1.77c-0.3,1.09-1.28,2.23-2.97,3.41c-1.6,1.01-2.59,1.66-2.97,1.96c-0.38,0.3-0.44,0.91-0.19,1.83
			c0.67,1.6,0.63,3.53-0.13,5.81c-0.76,2.27-2.02,4.63-3.79,7.07c-1.77,2.44-3.85,4.73-6.25,6.88c-2.4,2.15-4.88,3.96-7.45,5.43
			C1467.73,123.74,1465.31,124.6,1463.04,124.85z M1463.42,114.25c0.33,0,0.92-0.19,1.77-0.57c0.84-0.38,1.51-0.69,2.02-0.95
			c0.34-0.33,0.78-0.74,1.33-1.2c0.55-0.46,0.99-0.74,1.33-0.82c0.33,0,0.55-0.15,0.63-0.44c0.08-0.29,0.38-0.92,0.88-1.89
			c0.5-0.97,1.51-2.42,3.03-4.35c1.68-1.85,2.78-3.34,3.28-4.48s0.55-2.38,0.13-3.72c-0.08-0.33-0.32-0.55-0.69-0.63
			c-0.38-0.08-0.86-0.29-1.45-0.63c-0.84,0-1.41,0.19-1.7,0.57c-0.3,0.38-0.91,0.19-1.83-0.57l-2.02-2.52l-2.15,2.15
			c-1.35,1.35-2.55,3.03-3.6,5.05c-1.05,2.02-1.87,4.08-2.46,6.18c-0.59,2.1-0.97,3.96-1.14,5.55c-0.08,1.26,0.13,2.1,0.63,2.52
			C1461.9,113.91,1462.57,114.17,1463.42,114.25z"/>
		<path fill="#E63021" d="M1540.03,122.83c-1.85-0.17-3.39-0.57-4.61-1.2c-1.22-0.63-2.21-1.91-2.97-3.85
			c-0.34-1.34-0.49-2.75-0.44-4.23c0.04-1.47,0.15-2.9,0.32-4.29c0.17-1.39,0.25-2.59,0.25-3.6c0-0.17,0-0.5,0-1.01
			c0-0.5,0-0.97,0-1.39c-0.17-1.26-0.49-2.04-0.95-2.33c-0.46-0.29-1.24-0.23-2.33,0.19c-1.77,0.84-3.68,1.96-5.74,3.34
			c-2.06,1.39-4.21,2.99-6.44,4.8c-2.23,1.81-4.52,3.72-6.88,5.74c-1.85,2.02-3.22,3.66-4.1,4.92c-0.88,1.26-1.79,1.89-2.71,1.89
			c-0.67,0.34-1.39,0.25-2.15-0.25c-0.76-0.5-1.56-1.09-2.4-1.77c-0.59-0.67-1.28-1.53-2.08-2.59c-0.8-1.05-1.28-1.75-1.45-2.08
			c0-1.34,0.1-2.57,0.32-3.66c0.21-1.09,0.55-2.23,1.01-3.41c0.46-1.18,1.03-2.52,1.7-4.04c0.33-0.59,0.65-1.2,0.95-1.83
			c0.29-0.63,0.65-1.33,1.07-2.08c0.33-1.18,0.82-2.52,1.45-4.04s1.24-2.94,1.83-4.29c0.92-2.19,1.64-4.08,2.15-5.68
			c0.5-1.6,0.93-3.32,1.26-5.17c-0.08-0.17-0.04-0.42,0.13-0.76c0.17-0.34,0.42-0.55,0.76-0.63h0.13h0.13
			c0.59-0.42,1.7-0.48,3.34-0.19c1.64,0.3,2.88,0.78,3.72,1.45c1.77,1.51,2.61,3.49,2.52,5.93c-0.08,2.44-1.35,5.64-3.79,9.59
			c-0.59,1.35-1.2,2.59-1.83,3.72c-0.63,1.14-0.95,1.92-0.95,2.33c1.34-1.01,2.48-1.87,3.41-2.59c0.92-0.71,1.72-1.28,2.4-1.7
			c0.42-0.42,1.35-1.2,2.78-2.33c1.43-1.14,2.99-2.33,4.67-3.6c1.68-1.26,3.03-2.23,4.04-2.9c0.92-0.67,2.1-1.37,3.53-2.08
			c1.43-0.71,2.31-1.07,2.65-1.07c0.84,0,1.87,0.3,3.09,0.88c1.22,0.59,2.35,1.28,3.41,2.08c1.05,0.8,1.66,1.54,1.83,2.21
			c0,0.34-0.04,0.78-0.13,1.33c-0.08,0.55-0.13,1.03-0.13,1.45c-0.08,1.35-0.11,2.97-0.06,4.86c0.04,1.89,0.06,3.79,0.06,5.68
			s-0.17,3.6-0.5,5.11c0.17,0.25,0.29,0.5,0.38,0.76c-0.08,0.08-0.08,0.34,0,0.76c0.17,0.59,0.36,1.18,0.57,1.77
			c0.21,0.59,0.48,1.24,0.82,1.96c0.34,0.72,0.71,1.62,1.14,2.71c-0.08,1.09-0.69,2.17-1.83,3.22
			C1542.24,121.93,1541.12,122.58,1540.03,122.83z"/>
		<path fill="#E63021" d="M1571.08,126.62c-1.18-0.34-2.36-0.92-3.53-1.77c-1.18-0.84-2.4-1.81-3.66-2.9
			c-1.01-1.34-1.73-2.59-2.15-3.72c-0.42-1.14-0.65-2.48-0.69-4.04c-0.04-1.56-0.06-3.55-0.06-6c0-1.01,0.19-2.44,0.57-4.29
			c0.38-1.85,0.8-3.79,1.26-5.81c0.46-2.02,0.9-3.81,1.33-5.36c0.42-1.56,0.67-2.59,0.76-3.09c0.25-1.09-0.17-1.72-1.26-1.89
			c-1.09-0.17-2.29-0.23-3.6-0.19c-1.31,0.04-2.17-0.06-2.59-0.32c-0.34-0.08-0.5-0.92-0.5-2.52c0-0.33-0.17-0.57-0.5-0.69
			c-0.34-0.13-0.63-0.4-0.88-0.82c-0.17-0.34,0.04-0.97,0.63-1.89c0.59-0.92,1.34-1.47,2.27-1.64c0.76-0.17,1.89-0.32,3.41-0.44
			s3.05-0.42,4.61-0.88c1.56-0.46,2.76-1.2,3.6-2.21c0.76-1.85,1.6-3.85,2.52-6c0.92-2.15,1.81-4.04,2.65-5.68
			c0.84-1.64,1.43-2.67,1.77-3.09c1.43-0.76,2.9-1.07,4.42-0.95c1.51,0.13,2.69,0.86,3.53,2.21c0.42,0.59,0.78,1.01,1.07,1.26
			c0.29,0.25,0.42,0.63,0.38,1.14c-0.04,0.5-0.38,1.41-1.01,2.71c-0.63,1.31-1.66,3.3-3.09,6c-0.42,0.84-0.97,1.89-1.64,3.16
			c0.33,0.08,0.84,0.13,1.51,0.13c0.67,0,1.51-0.04,2.52-0.13c0.93-0.17,1.94-0.32,3.03-0.44c1.09-0.13,2.06-0.1,2.9,0.06
			c1.93,0,3.36,0.55,4.29,1.64c0.93,1.09,1.43,2.48,1.51,4.17c0.17,0.93-0.17,1.73-1.01,2.4c-0.84,0.67-2.4,1.01-4.67,1.01
			c-0.76,0-1.85,0.04-3.28,0.13c-1.43,0.08-2.9,0.17-4.42,0.25c-1.51,0.08-2.8,0.19-3.85,0.32c-1.05,0.13-1.58,0.27-1.58,0.44
			c-0.25,0.17-0.65,0.82-1.2,1.96c-0.55,1.14-1.09,2.5-1.64,4.1c-0.55,1.6-1.03,3.11-1.45,4.54c-0.59,2.86-1.01,5.64-1.26,8.33
			c-0.25,2.69-0.27,5.03-0.06,7c0.21,1.98,0.69,3.39,1.45,4.23c0.76,0.76,1.91,0.74,3.47-0.06c1.56-0.8,3.01-1.75,4.35-2.84
			c1.51-1.26,2.82-1.66,3.91-1.2c1.09,0.46,1.79,1.39,2.08,2.78c0.29,1.39-0.11,2.88-1.2,4.48c-1.01,1.6-2.44,2.95-4.29,4.04
			c-1.85,1.09-3.75,1.87-5.68,2.33C1574.19,127.02,1572.51,127.04,1571.08,126.62z"/>
		<path fill="#E63021" d="M1600.36,121.7c-0.34,0-1.6-0.5-3.79-1.51c0-0.33-0.11-0.76-0.32-1.26c-0.21-0.5-0.32-0.92-0.32-1.26
			c-0.59-0.33-1.18-0.88-1.77-1.64c-0.59-0.76-0.72-1.6-0.38-2.52c0.5-0.92,1.2-2.33,2.08-4.23s1.85-4.04,2.9-6.44
			c1.05-2.4,2.04-4.73,2.97-7c0.92-2.27,1.72-4.23,2.4-5.87c0.67-1.64,1.05-2.63,1.14-2.97c0-0.33,0.06-0.92,0.19-1.77
			c0.13-0.84,0.65-1.56,1.58-2.15c1.09-0.76,2.23-0.8,3.41-0.13c1.18,0.67,2.19,1.83,3.03,3.47c0.84,1.64,1.26,3.56,1.26,5.74
			c0,0.59-0.42,2.08-1.26,4.48c-0.84,2.4-1.96,5.24-3.34,8.52c-1.39,3.28-2.92,6.61-4.61,9.97c-1.26,2.44-2.21,4.15-2.84,5.11
			C1602.06,121.21,1601.29,121.7,1600.36,121.7z M1617.53,73.35c-1.01,0-2.21-0.46-3.6-1.39c-1.39-0.93-2.63-2.1-3.72-3.53
			c-1.09-1.43-1.64-2.94-1.64-4.54c0-0.42,0.38-1.2,1.14-2.33c0.76-1.14,1.49-2.25,2.21-3.34c0.71-1.09,1.07-1.72,1.07-1.89
			c0.67,0,1.47,0.13,2.4,0.38c0.92,0.25,1.68,0.55,2.27,0.88c0.92,2.1,2.15,3.89,3.66,5.36c1.51,1.47,2.27,3.14,2.27,4.99
			c0,1.85-0.46,3.22-1.39,4.1C1621.27,72.91,1619.71,73.35,1617.53,73.35z"/>
		<path fill="#E63021" d="M1639.87,124.73c-1.09,0.5-2.36,0.72-3.79,0.63c-1.43-0.08-3.37-0.55-5.81-1.39
			c-0.17,0-0.76-0.38-1.77-1.14c-1.01-0.76-2.02-1.64-3.03-2.65s-1.68-1.85-2.02-2.52c-1.35-1.93-1.75-4.8-1.2-8.58
			c0.55-3.79,1.87-8.33,3.98-13.63c0.59-1.26,1.49-2.86,2.71-4.8c1.22-1.93,2.44-3.72,3.66-5.36c1.22-1.64,2.08-2.59,2.59-2.84
			c1.85-0.67,3.49-1.39,4.92-2.15c0.42-0.17,1.16-0.38,2.21-0.63c1.05-0.25,2.15-0.48,3.28-0.69c1.14-0.21,1.91-0.27,2.33-0.19
			c1.68,0.08,3.43,0.69,5.24,1.83c1.81,1.14,3.3,2.44,4.48,3.91c1.18,1.47,1.56,2.76,1.14,3.85c0,0.17-0.23,0.69-0.69,1.58
			c-0.46,0.88-0.95,1.77-1.45,2.65c-0.5,0.88-0.93,1.54-1.26,1.96c-0.42,0.5-1.16,0.72-2.21,0.63c-1.05-0.08-2-0.42-2.84-1.01
			c-0.84-0.59-1.31-1.39-1.39-2.4c-0.17-0.67-1.31-1.6-3.41-2.78c-0.67,0-1.56,0.67-2.65,2.02c-1.09,1.35-2.23,2.86-3.41,4.54
			c-1.51,1.51-2.59,3.14-3.22,4.86c-0.63,1.73-1.05,3.33-1.26,4.8c-0.21,1.47-0.44,2.59-0.69,3.34c-0.34,0.84-0.34,1.89,0,3.16
			c0.34,1.26,0.76,1.98,1.26,2.15c0.76,0.08,1.79,0.02,3.09-0.19c1.3-0.21,2.69-0.5,4.17-0.88c1.47-0.38,2.97-0.8,4.48-1.26
			c1.51-0.46,2.86-0.95,4.04-1.45c1.6-1.01,2.99-1.41,4.17-1.2c1.18,0.21,2.06,0.4,2.65,0.57c0.92,0.34,1.39,1.05,1.39,2.15
			c0,1.09-0.38,2.25-1.14,3.47c-0.76,1.22-1.85,2.21-3.28,2.97c-1.35,0.67-2.55,1.41-3.6,2.21c-1.05,0.8-1.58,1.41-1.58,1.83
			c-0.34,0-0.69,0.11-1.07,0.32c-0.38,0.21-0.69,0.27-0.95,0.19c-0.17,0-0.84,0.13-2.02,0.38c-1.18,0.25-2.38,0.55-3.6,0.88
			C1641.11,124.18,1640.29,124.47,1639.87,124.73z"/>
		<path fill="#E63021" d="M1676.09,126.62c-2.86-1.18-4.94-2.42-6.25-3.72c-1.31-1.3-1.83-2.46-1.58-3.47
			c0.17-0.5,0.46-0.97,0.88-1.39c0.42-0.42,1.37-0.61,2.84-0.57c1.47,0.04,3.76,0.44,6.88,1.2c0.92,0,1.85-0.04,2.78-0.13
			c0.92-0.08,1.79-0.21,2.59-0.38c0.8-0.17,1.45-0.38,1.96-0.63c0.42-0.17,0.55-0.4,0.38-0.69c-0.17-0.29-0.46-0.61-0.88-0.95
			c-0.34-0.42-0.72-0.69-1.14-0.82c-0.42-0.13-0.8-0.19-1.14-0.19c-0.17-0.42-0.53-0.84-1.07-1.26c-0.55-0.42-1.2-0.88-1.96-1.39
			c-1.85-1.51-3.53-2.86-5.05-4.04c-1.51-1.18-2.1-2.06-1.77-2.65c0-0.33,0-0.55,0-0.63c-0.59,0-1.14-0.82-1.64-2.46
			c-0.5-1.64-0.76-3.13-0.76-4.48c0-1.68,0.36-3.36,1.07-5.05c0.71-1.68,1.64-3.28,2.78-4.8s2.29-2.86,3.47-4.04
			c1.6-1.51,3.3-3.01,5.11-4.48c1.81-1.47,3.79-2.8,5.93-3.98c2.15-1.18,4.52-2.1,7.13-2.78c1.18-0.25,2.52-0.38,4.04-0.38
			s2.61,0.21,3.28,0.63c0.67-0.42,1.51-0.32,2.52,0.32s2.02,1.5,3.03,2.59c1.01,1.09,1.77,2.19,2.27,3.28
			c0,1.01-0.02,2.25-0.06,3.72c-0.04,1.47-0.15,2.76-0.32,3.85c-0.17,1.09-0.55,1.64-1.14,1.64c-0.42,0.08-0.63,0.34-0.63,0.76
			c0,0.84-0.63,1.81-1.89,2.9c-1.6,1.09-3.11,1.98-4.54,2.65c-1.43,0.67-2.52,0.72-3.28,0.13c-0.5-0.33-0.97-0.67-1.39-1.01
			c-0.42-0.34-0.8-0.76-1.14-1.26c-0.42-0.76-0.63-1.3-0.63-1.64c0-0.33,0.25-0.8,0.76-1.39c1.18-1.09,2.08-2.1,2.71-3.03
			c0.63-0.92,1.07-1.75,1.33-2.46c0.25-0.71,0.38-1.28,0.38-1.7c0-0.5-0.11-0.82-0.32-0.95c-0.21-0.13-0.65-0.19-1.33-0.19
			c-0.42,0-1.33,0.34-2.71,1.01c-1.39,0.67-2.84,1.5-4.35,2.46c-1.51,0.97-2.69,1.83-3.53,2.59c-0.34,0.59-0.57,0.97-0.69,1.14
			c-0.13,0.17-0.36,0.25-0.69,0.25c0-0.33-0.21-0.29-0.63,0.13c-0.42,0.42-0.93,1.01-1.51,1.77c-0.59,0.76-1.18,1.56-1.77,2.4
			c-0.59,0.84-1.05,1.51-1.39,2.02c-0.08,0.76-0.27,1.45-0.57,2.08c-0.3,0.63-0.4,1.28-0.32,1.96c0.08,0.84,0.5,1.64,1.26,2.4
			c0.76,0.76,1.85,1.73,3.28,2.9c2.94,2.19,5.15,3.91,6.63,5.17c1.47,1.26,2.5,2.27,3.09,3.03c0.59,0.76,0.97,1.51,1.14,2.27
			c1.43,2.61,1.6,4.86,0.5,6.75c-1.09,1.89-2.78,3.34-5.05,4.35c-0.84,0.42-2.32,0.82-4.42,1.2c-2.1,0.38-4.31,0.55-6.63,0.5
			C1679.64,127.65,1677.69,127.29,1676.09,126.62z"/>
</svg>
